<?xml version="1.0" encoding="utf-8" standalone="no"?>
<!DOCTYPE svg PUBLIC "-//W3C//DTD SVG 1.1//EN"
  "http://www.w3.org/Graphics/SVG/1.1/DTD/svg11.dtd">
<svg xmlns:xlink="http://www.w3.org/1999/xlink" width="784.917187pt" height="355.465312pt" viewBox="0 0 784.917187 355.465312" xmlns="http://www.w3.org/2000/svg" version="1.1">
 <metadata>
  <rdf:RDF xmlns:dc="http://purl.org/dc/elements/1.1/" xmlns:cc="http://creativecommons.org/ns#" xmlns:rdf="http://www.w3.org/1999/02/22-rdf-syntax-ns#">
   <cc:Work>
    <dc:type rdf:resource="http://purl.org/dc/dcmitype/StillImage"/>
    <dc:date>2024-01-31T20:33:35.747281</dc:date>
    <dc:format>image/svg+xml</dc:format>
    <dc:creator>
     <cc:Agent>
      <dc:title>Matplotlib v3.8.2, https://matplotlib.org/</dc:title>
     </cc:Agent>
    </dc:creator>
   </cc:Work>
  </rdf:RDF>
 </metadata>
 <defs>
  <style type="text/css">*{stroke-linejoin: round; stroke-linecap: butt}</style>
 </defs>
 <g id="figure_1">
  <g id="patch_1">
   <path d="M 0 355.465312 
L 784.917187 355.465312 
L 784.917187 0 
L 0 0 
z
" style="fill: #ffffff"/>
  </g>
  <g id="axes_1">
   <g id="patch_2">
    <path d="M 45.857188 332.12 
L 404.637187 332.12 
L 404.637187 82.392 
L 45.857188 82.392 
z
" style="fill: #ffffff"/>
   </g>
   <g id="matplotlib.axis_1">
    <g id="xtick_1">
     <g id="line2d_1">
      <defs>
       <path id="ma0ea4dd00d" d="M 0 0 
L 0 3.5 
" style="stroke: #262626; stroke-width: 0.8"/>
      </defs>
      <g>
       <use xlink:href="#ma0ea4dd00d" x="62.165369" y="332.12" style="fill: #262626; stroke: #262626; stroke-width: 0.8"/>
      </g>
     </g>
     <g id="text_1">
      <!-- 0.5 -->
      <g style="fill: #262626" transform="translate(55.215369 346.277812) scale(0.1 -0.1)">
       <defs>
        <path id="ArialMT-30" d="M 266 2259 
Q 266 3072 433 3567 
Q 600 4063 929 4331 
Q 1259 4600 1759 4600 
Q 2128 4600 2406 4451 
Q 2684 4303 2865 4023 
Q 3047 3744 3150 3342 
Q 3253 2941 3253 2259 
Q 3253 1453 3087 958 
Q 2922 463 2592 192 
Q 2263 -78 1759 -78 
Q 1097 -78 719 397 
Q 266 969 266 2259 
z
M 844 2259 
Q 844 1131 1108 757 
Q 1372 384 1759 384 
Q 2147 384 2411 759 
Q 2675 1134 2675 2259 
Q 2675 3391 2411 3762 
Q 2147 4134 1753 4134 
Q 1366 4134 1134 3806 
Q 844 3388 844 2259 
z
" transform="scale(0.015625)"/>
        <path id="ArialMT-2e" d="M 581 0 
L 581 641 
L 1222 641 
L 1222 0 
L 581 0 
z
" transform="scale(0.015625)"/>
        <path id="ArialMT-35" d="M 266 1200 
L 856 1250 
Q 922 819 1161 601 
Q 1400 384 1738 384 
Q 2144 384 2425 690 
Q 2706 997 2706 1503 
Q 2706 1984 2436 2262 
Q 2166 2541 1728 2541 
Q 1456 2541 1237 2417 
Q 1019 2294 894 2097 
L 366 2166 
L 809 4519 
L 3088 4519 
L 3088 3981 
L 1259 3981 
L 1013 2750 
Q 1425 3038 1878 3038 
Q 2478 3038 2890 2622 
Q 3303 2206 3303 1553 
Q 3303 931 2941 478 
Q 2500 -78 1738 -78 
Q 1113 -78 717 272 
Q 322 622 266 1200 
z
" transform="scale(0.015625)"/>
       </defs>
       <use xlink:href="#ArialMT-30"/>
       <use xlink:href="#ArialMT-2e" x="55.615234"/>
       <use xlink:href="#ArialMT-35" x="83.398438"/>
      </g>
     </g>
    </g>
    <g id="xtick_2">
     <g id="line2d_2">
      <g>
       <use xlink:href="#ma0ea4dd00d" x="108.856817" y="332.12" style="fill: #262626; stroke: #262626; stroke-width: 0.8"/>
      </g>
     </g>
     <g id="text_2">
      <!-- 1.0 -->
      <g style="fill: #262626" transform="translate(101.906817 346.277812) scale(0.1 -0.1)">
       <defs>
        <path id="ArialMT-31" d="M 2384 0 
L 1822 0 
L 1822 3584 
Q 1619 3391 1289 3197 
Q 959 3003 697 2906 
L 697 3450 
Q 1169 3672 1522 3987 
Q 1875 4303 2022 4600 
L 2384 4600 
L 2384 0 
z
" transform="scale(0.015625)"/>
       </defs>
       <use xlink:href="#ArialMT-31"/>
       <use xlink:href="#ArialMT-2e" x="55.615234"/>
       <use xlink:href="#ArialMT-30" x="83.398438"/>
      </g>
     </g>
    </g>
    <g id="xtick_3">
     <g id="line2d_3">
      <g>
       <use xlink:href="#ma0ea4dd00d" x="155.548265" y="332.12" style="fill: #262626; stroke: #262626; stroke-width: 0.8"/>
      </g>
     </g>
     <g id="text_3">
      <!-- 1.5 -->
      <g style="fill: #262626" transform="translate(148.598265 346.277812) scale(0.1 -0.1)">
       <use xlink:href="#ArialMT-31"/>
       <use xlink:href="#ArialMT-2e" x="55.615234"/>
       <use xlink:href="#ArialMT-35" x="83.398438"/>
      </g>
     </g>
    </g>
    <g id="xtick_4">
     <g id="line2d_4">
      <g>
       <use xlink:href="#ma0ea4dd00d" x="202.239713" y="332.12" style="fill: #262626; stroke: #262626; stroke-width: 0.8"/>
      </g>
     </g>
     <g id="text_4">
      <!-- 2.0 -->
      <g style="fill: #262626" transform="translate(195.289713 346.277812) scale(0.1 -0.1)">
       <defs>
        <path id="ArialMT-32" d="M 3222 541 
L 3222 0 
L 194 0 
Q 188 203 259 391 
Q 375 700 629 1000 
Q 884 1300 1366 1694 
Q 2113 2306 2375 2664 
Q 2638 3022 2638 3341 
Q 2638 3675 2398 3904 
Q 2159 4134 1775 4134 
Q 1369 4134 1125 3890 
Q 881 3647 878 3216 
L 300 3275 
Q 359 3922 746 4261 
Q 1134 4600 1788 4600 
Q 2447 4600 2831 4234 
Q 3216 3869 3216 3328 
Q 3216 3053 3103 2787 
Q 2991 2522 2730 2228 
Q 2469 1934 1863 1422 
Q 1356 997 1212 845 
Q 1069 694 975 541 
L 3222 541 
z
" transform="scale(0.015625)"/>
       </defs>
       <use xlink:href="#ArialMT-32"/>
       <use xlink:href="#ArialMT-2e" x="55.615234"/>
       <use xlink:href="#ArialMT-30" x="83.398438"/>
      </g>
     </g>
    </g>
    <g id="xtick_5">
     <g id="line2d_5">
      <g>
       <use xlink:href="#ma0ea4dd00d" x="248.931161" y="332.12" style="fill: #262626; stroke: #262626; stroke-width: 0.8"/>
      </g>
     </g>
     <g id="text_5">
      <!-- 2.5 -->
      <g style="fill: #262626" transform="translate(241.981161 346.277812) scale(0.1 -0.1)">
       <use xlink:href="#ArialMT-32"/>
       <use xlink:href="#ArialMT-2e" x="55.615234"/>
       <use xlink:href="#ArialMT-35" x="83.398438"/>
      </g>
     </g>
    </g>
    <g id="xtick_6">
     <g id="line2d_6">
      <g>
       <use xlink:href="#ma0ea4dd00d" x="295.622608" y="332.12" style="fill: #262626; stroke: #262626; stroke-width: 0.8"/>
      </g>
     </g>
     <g id="text_6">
      <!-- 3.0 -->
      <g style="fill: #262626" transform="translate(288.672608 346.277812) scale(0.1 -0.1)">
       <defs>
        <path id="ArialMT-33" d="M 269 1209 
L 831 1284 
Q 928 806 1161 595 
Q 1394 384 1728 384 
Q 2125 384 2398 659 
Q 2672 934 2672 1341 
Q 2672 1728 2419 1979 
Q 2166 2231 1775 2231 
Q 1616 2231 1378 2169 
L 1441 2663 
Q 1497 2656 1531 2656 
Q 1891 2656 2178 2843 
Q 2466 3031 2466 3422 
Q 2466 3731 2256 3934 
Q 2047 4138 1716 4138 
Q 1388 4138 1169 3931 
Q 950 3725 888 3313 
L 325 3413 
Q 428 3978 793 4289 
Q 1159 4600 1703 4600 
Q 2078 4600 2393 4439 
Q 2709 4278 2876 4000 
Q 3044 3722 3044 3409 
Q 3044 3113 2884 2869 
Q 2725 2625 2413 2481 
Q 2819 2388 3044 2092 
Q 3269 1797 3269 1353 
Q 3269 753 2831 336 
Q 2394 -81 1725 -81 
Q 1122 -81 723 278 
Q 325 638 269 1209 
z
" transform="scale(0.015625)"/>
       </defs>
       <use xlink:href="#ArialMT-33"/>
       <use xlink:href="#ArialMT-2e" x="55.615234"/>
       <use xlink:href="#ArialMT-30" x="83.398438"/>
      </g>
     </g>
    </g>
    <g id="xtick_7">
     <g id="line2d_7">
      <g>
       <use xlink:href="#ma0ea4dd00d" x="342.314056" y="332.12" style="fill: #262626; stroke: #262626; stroke-width: 0.8"/>
      </g>
     </g>
     <g id="text_7">
      <!-- 3.5 -->
      <g style="fill: #262626" transform="translate(335.364056 346.277812) scale(0.1 -0.1)">
       <use xlink:href="#ArialMT-33"/>
       <use xlink:href="#ArialMT-2e" x="55.615234"/>
       <use xlink:href="#ArialMT-35" x="83.398438"/>
      </g>
     </g>
    </g>
    <g id="xtick_8">
     <g id="line2d_8">
      <g>
       <use xlink:href="#ma0ea4dd00d" x="389.005504" y="332.12" style="fill: #262626; stroke: #262626; stroke-width: 0.8"/>
      </g>
     </g>
     <g id="text_8">
      <!-- 4.0 -->
      <g style="fill: #262626" transform="translate(382.055504 346.277812) scale(0.1 -0.1)">
       <defs>
        <path id="ArialMT-34" d="M 2069 0 
L 2069 1097 
L 81 1097 
L 81 1613 
L 2172 4581 
L 2631 4581 
L 2631 1613 
L 3250 1613 
L 3250 1097 
L 2631 1097 
L 2631 0 
L 2069 0 
z
M 2069 1613 
L 2069 3678 
L 634 1613 
L 2069 1613 
z
" transform="scale(0.015625)"/>
       </defs>
       <use xlink:href="#ArialMT-34"/>
       <use xlink:href="#ArialMT-2e" x="55.615234"/>
       <use xlink:href="#ArialMT-30" x="83.398438"/>
      </g>
     </g>
    </g>
   </g>
   <g id="matplotlib.axis_2">
    <g id="ytick_1">
     <g id="line2d_9">
      <defs>
       <path id="m96d595c9d8" d="M 0 0 
L -3.5 0 
" style="stroke: #262626; stroke-width: 0.8"/>
      </defs>
      <g>
       <use xlink:href="#m96d595c9d8" x="45.857188" y="332.12" style="fill: #262626; stroke: #262626; stroke-width: 0.8"/>
      </g>
     </g>
     <g id="text_9">
      <!-- 0 -->
      <g style="fill: #262626" transform="translate(33.29625 335.698906) scale(0.1 -0.1)">
       <use xlink:href="#ArialMT-30"/>
      </g>
     </g>
    </g>
    <g id="ytick_2">
     <g id="line2d_10">
      <g>
       <use xlink:href="#m96d595c9d8" x="45.857188" y="281.408659" style="fill: #262626; stroke: #262626; stroke-width: 0.8"/>
      </g>
     </g>
     <g id="text_10">
      <!-- 200 -->
      <g style="fill: #262626" transform="translate(22.174375 284.987565) scale(0.1 -0.1)">
       <use xlink:href="#ArialMT-32"/>
       <use xlink:href="#ArialMT-30" x="55.615234"/>
       <use xlink:href="#ArialMT-30" x="111.230469"/>
      </g>
     </g>
    </g>
    <g id="ytick_3">
     <g id="line2d_11">
      <g>
       <use xlink:href="#m96d595c9d8" x="45.857188" y="230.697317" style="fill: #262626; stroke: #262626; stroke-width: 0.8"/>
      </g>
     </g>
     <g id="text_11">
      <!-- 400 -->
      <g style="fill: #262626" transform="translate(22.174375 234.276224) scale(0.1 -0.1)">
       <use xlink:href="#ArialMT-34"/>
       <use xlink:href="#ArialMT-30" x="55.615234"/>
       <use xlink:href="#ArialMT-30" x="111.230469"/>
      </g>
     </g>
    </g>
    <g id="ytick_4">
     <g id="line2d_12">
      <g>
       <use xlink:href="#m96d595c9d8" x="45.857188" y="179.985976" style="fill: #262626; stroke: #262626; stroke-width: 0.8"/>
      </g>
     </g>
     <g id="text_12">
      <!-- 600 -->
      <g style="fill: #262626" transform="translate(22.174375 183.564882) scale(0.1 -0.1)">
       <defs>
        <path id="ArialMT-36" d="M 3184 3459 
L 2625 3416 
Q 2550 3747 2413 3897 
Q 2184 4138 1850 4138 
Q 1581 4138 1378 3988 
Q 1113 3794 959 3422 
Q 806 3050 800 2363 
Q 1003 2672 1297 2822 
Q 1591 2972 1913 2972 
Q 2475 2972 2870 2558 
Q 3266 2144 3266 1488 
Q 3266 1056 3080 686 
Q 2894 316 2569 119 
Q 2244 -78 1831 -78 
Q 1128 -78 684 439 
Q 241 956 241 2144 
Q 241 3472 731 4075 
Q 1159 4600 1884 4600 
Q 2425 4600 2770 4297 
Q 3116 3994 3184 3459 
z
M 888 1484 
Q 888 1194 1011 928 
Q 1134 663 1356 523 
Q 1578 384 1822 384 
Q 2178 384 2434 671 
Q 2691 959 2691 1453 
Q 2691 1928 2437 2201 
Q 2184 2475 1800 2475 
Q 1419 2475 1153 2201 
Q 888 1928 888 1484 
z
" transform="scale(0.015625)"/>
       </defs>
       <use xlink:href="#ArialMT-36"/>
       <use xlink:href="#ArialMT-30" x="55.615234"/>
       <use xlink:href="#ArialMT-30" x="111.230469"/>
      </g>
     </g>
    </g>
    <g id="ytick_5">
     <g id="line2d_13">
      <g>
       <use xlink:href="#m96d595c9d8" x="45.857188" y="129.274635" style="fill: #262626; stroke: #262626; stroke-width: 0.8"/>
      </g>
     </g>
     <g id="text_13">
      <!-- 800 -->
      <g style="fill: #262626" transform="translate(22.174375 132.853541) scale(0.1 -0.1)">
       <defs>
        <path id="ArialMT-38" d="M 1131 2484 
Q 781 2613 612 2850 
Q 444 3088 444 3419 
Q 444 3919 803 4259 
Q 1163 4600 1759 4600 
Q 2359 4600 2725 4251 
Q 3091 3903 3091 3403 
Q 3091 3084 2923 2848 
Q 2756 2613 2416 2484 
Q 2838 2347 3058 2040 
Q 3278 1734 3278 1309 
Q 3278 722 2862 322 
Q 2447 -78 1769 -78 
Q 1091 -78 675 323 
Q 259 725 259 1325 
Q 259 1772 486 2073 
Q 713 2375 1131 2484 
z
M 1019 3438 
Q 1019 3113 1228 2906 
Q 1438 2700 1772 2700 
Q 2097 2700 2305 2904 
Q 2513 3109 2513 3406 
Q 2513 3716 2298 3927 
Q 2084 4138 1766 4138 
Q 1444 4138 1231 3931 
Q 1019 3725 1019 3438 
z
M 838 1322 
Q 838 1081 952 856 
Q 1066 631 1291 507 
Q 1516 384 1775 384 
Q 2178 384 2440 643 
Q 2703 903 2703 1303 
Q 2703 1709 2433 1975 
Q 2163 2241 1756 2241 
Q 1359 2241 1098 1978 
Q 838 1716 838 1322 
z
" transform="scale(0.015625)"/>
       </defs>
       <use xlink:href="#ArialMT-38"/>
       <use xlink:href="#ArialMT-30" x="55.615234"/>
       <use xlink:href="#ArialMT-30" x="111.230469"/>
      </g>
     </g>
    </g>
    <g id="text_14">
     <!-- Count -->
     <g style="fill: #262626" transform="translate(15.789375 223.265687) rotate(-90) scale(0.12 -0.12)">
      <defs>
       <path id="ArialMT-43" d="M 3763 1606 
L 4369 1453 
Q 4178 706 3683 314 
Q 3188 -78 2472 -78 
Q 1731 -78 1267 223 
Q 803 525 561 1097 
Q 319 1669 319 2325 
Q 319 3041 592 3573 
Q 866 4106 1370 4382 
Q 1875 4659 2481 4659 
Q 3169 4659 3637 4309 
Q 4106 3959 4291 3325 
L 3694 3184 
Q 3534 3684 3231 3912 
Q 2928 4141 2469 4141 
Q 1941 4141 1586 3887 
Q 1231 3634 1087 3207 
Q 944 2781 944 2328 
Q 944 1744 1114 1308 
Q 1284 872 1643 656 
Q 2003 441 2422 441 
Q 2931 441 3284 734 
Q 3638 1028 3763 1606 
z
" transform="scale(0.015625)"/>
       <path id="ArialMT-6f" d="M 213 1659 
Q 213 2581 725 3025 
Q 1153 3394 1769 3394 
Q 2453 3394 2887 2945 
Q 3322 2497 3322 1706 
Q 3322 1066 3130 698 
Q 2938 331 2570 128 
Q 2203 -75 1769 -75 
Q 1072 -75 642 372 
Q 213 819 213 1659 
z
M 791 1659 
Q 791 1022 1069 705 
Q 1347 388 1769 388 
Q 2188 388 2466 706 
Q 2744 1025 2744 1678 
Q 2744 2294 2464 2611 
Q 2184 2928 1769 2928 
Q 1347 2928 1069 2612 
Q 791 2297 791 1659 
z
" transform="scale(0.015625)"/>
       <path id="ArialMT-75" d="M 2597 0 
L 2597 488 
Q 2209 -75 1544 -75 
Q 1250 -75 995 37 
Q 741 150 617 320 
Q 494 491 444 738 
Q 409 903 409 1263 
L 409 3319 
L 972 3319 
L 972 1478 
Q 972 1038 1006 884 
Q 1059 663 1231 536 
Q 1403 409 1656 409 
Q 1909 409 2131 539 
Q 2353 669 2445 892 
Q 2538 1116 2538 1541 
L 2538 3319 
L 3100 3319 
L 3100 0 
L 2597 0 
z
" transform="scale(0.015625)"/>
       <path id="ArialMT-6e" d="M 422 0 
L 422 3319 
L 928 3319 
L 928 2847 
Q 1294 3394 1984 3394 
Q 2284 3394 2536 3286 
Q 2788 3178 2913 3003 
Q 3038 2828 3088 2588 
Q 3119 2431 3119 2041 
L 3119 0 
L 2556 0 
L 2556 2019 
Q 2556 2363 2490 2533 
Q 2425 2703 2258 2804 
Q 2091 2906 1866 2906 
Q 1506 2906 1245 2678 
Q 984 2450 984 1813 
L 984 0 
L 422 0 
z
" transform="scale(0.015625)"/>
       <path id="ArialMT-74" d="M 1650 503 
L 1731 6 
Q 1494 -44 1306 -44 
Q 1000 -44 831 53 
Q 663 150 594 308 
Q 525 466 525 972 
L 525 2881 
L 113 2881 
L 113 3319 
L 525 3319 
L 525 4141 
L 1084 4478 
L 1084 3319 
L 1650 3319 
L 1650 2881 
L 1084 2881 
L 1084 941 
Q 1084 700 1114 631 
Q 1144 563 1211 522 
Q 1278 481 1403 481 
Q 1497 481 1650 503 
z
" transform="scale(0.015625)"/>
      </defs>
      <use xlink:href="#ArialMT-43"/>
      <use xlink:href="#ArialMT-6f" x="72.216797"/>
      <use xlink:href="#ArialMT-75" x="127.832031"/>
      <use xlink:href="#ArialMT-6e" x="183.447266"/>
      <use xlink:href="#ArialMT-74" x="239.0625"/>
     </g>
    </g>
   </g>
   <g id="patch_3">
    <path d="M 116.299925 332.12 
L 123.100652 332.12 
L 123.100652 331.612887 
L 116.299925 331.612887 
z
" clip-path="url(#pe201b43967)" style="fill: #bc7af9; fill-opacity: 0.75; stroke: #ffffff; stroke-width: 0.634091; stroke-linejoin: miter"/>
   </g>
   <g id="patch_4">
    <path d="M 123.100652 332.12 
L 129.901379 332.12 
L 129.901379 331.866443 
L 123.100652 331.866443 
z
" clip-path="url(#pe201b43967)" style="fill: #bc7af9; fill-opacity: 0.75; stroke: #ffffff; stroke-width: 0.634091; stroke-linejoin: miter"/>
   </g>
   <g id="patch_5">
    <path d="M 129.901379 332.12 
L 136.702106 332.12 
L 136.702106 329.07732 
L 129.901379 329.07732 
z
" clip-path="url(#pe201b43967)" style="fill: #bc7af9; fill-opacity: 0.75; stroke: #ffffff; stroke-width: 0.634091; stroke-linejoin: miter"/>
   </g>
   <g id="patch_6">
    <path d="M 136.702106 332.12 
L 143.502833 332.12 
L 143.502833 326.795309 
L 136.702106 326.795309 
z
" clip-path="url(#pe201b43967)" style="fill: #bc7af9; fill-opacity: 0.75; stroke: #ffffff; stroke-width: 0.634091; stroke-linejoin: miter"/>
   </g>
   <g id="patch_7">
    <path d="M 143.502833 332.12 
L 150.30356 332.12 
L 150.30356 321.470618 
L 143.502833 321.470618 
z
" clip-path="url(#pe201b43967)" style="fill: #bc7af9; fill-opacity: 0.75; stroke: #ffffff; stroke-width: 0.634091; stroke-linejoin: miter"/>
   </g>
   <g id="patch_8">
    <path d="M 150.30356 332.12 
L 157.104287 332.12 
L 157.104287 314.117474 
L 150.30356 314.117474 
z
" clip-path="url(#pe201b43967)" style="fill: #bc7af9; fill-opacity: 0.75; stroke: #ffffff; stroke-width: 0.634091; stroke-linejoin: miter"/>
   </g>
   <g id="patch_9">
    <path d="M 157.104287 332.12 
L 163.905014 332.12 
L 163.905014 304.228762 
L 157.104287 304.228762 
z
" clip-path="url(#pe201b43967)" style="fill: #bc7af9; fill-opacity: 0.75; stroke: #ffffff; stroke-width: 0.634091; stroke-linejoin: miter"/>
   </g>
   <g id="patch_10">
    <path d="M 163.905014 332.12 
L 170.705741 332.12 
L 170.705741 288.508247 
L 163.905014 288.508247 
z
" clip-path="url(#pe201b43967)" style="fill: #bc7af9; fill-opacity: 0.75; stroke: #ffffff; stroke-width: 0.634091; stroke-linejoin: miter"/>
   </g>
   <g id="patch_11">
    <path d="M 170.705741 332.12 
L 177.506468 332.12 
L 177.506468 263.913246 
L 170.705741 263.913246 
z
" clip-path="url(#pe201b43967)" style="fill: #bc7af9; fill-opacity: 0.75; stroke: #ffffff; stroke-width: 0.634091; stroke-linejoin: miter"/>
   </g>
   <g id="patch_12">
    <path d="M 177.506468 332.12 
L 184.307195 332.12 
L 184.307195 238.304019 
L 177.506468 238.304019 
z
" clip-path="url(#pe201b43967)" style="fill: #bc7af9; fill-opacity: 0.75; stroke: #ffffff; stroke-width: 0.634091; stroke-linejoin: miter"/>
   </g>
   <g id="patch_13">
    <path d="M 184.307195 332.12 
L 191.107922 332.12 
L 191.107922 213.962575 
L 184.307195 213.962575 
z
" clip-path="url(#pe201b43967)" style="fill: #bc7af9; fill-opacity: 0.75; stroke: #ffffff; stroke-width: 0.634091; stroke-linejoin: miter"/>
   </g>
   <g id="patch_14">
    <path d="M 191.107922 332.12 
L 197.908649 332.12 
L 197.908649 200.777626 
L 191.107922 200.777626 
z
" clip-path="url(#pe201b43967)" style="fill: #bc7af9; fill-opacity: 0.75; stroke: #ffffff; stroke-width: 0.634091; stroke-linejoin: miter"/>
   </g>
   <g id="patch_15">
    <path d="M 197.908649 332.12 
L 204.709376 332.12 
L 204.709376 151.841182 
L 197.908649 151.841182 
z
" clip-path="url(#pe201b43967)" style="fill: #bc7af9; fill-opacity: 0.75; stroke: #ffffff; stroke-width: 0.634091; stroke-linejoin: miter"/>
   </g>
   <g id="patch_16">
    <path d="M 204.709376 332.12 
L 211.510103 332.12 
L 211.510103 119.63948 
L 204.709376 119.63948 
z
" clip-path="url(#pe201b43967)" style="fill: #bc7af9; fill-opacity: 0.75; stroke: #ffffff; stroke-width: 0.634091; stroke-linejoin: miter"/>
   </g>
   <g id="patch_17">
    <path d="M 211.510103 332.12 
L 218.31083 332.12 
L 218.31083 113.807676 
L 211.510103 113.807676 
z
" clip-path="url(#pe201b43967)" style="fill: #bc7af9; fill-opacity: 0.75; stroke: #ffffff; stroke-width: 0.634091; stroke-linejoin: miter"/>
   </g>
   <g id="patch_18">
    <path d="M 218.31083 332.12 
L 225.111557 332.12 
L 225.111557 107.722315 
L 218.31083 107.722315 
z
" clip-path="url(#pe201b43967)" style="fill: #bc7af9; fill-opacity: 0.75; stroke: #ffffff; stroke-width: 0.634091; stroke-linejoin: miter"/>
   </g>
   <g id="patch_19">
    <path d="M 225.111557 332.12 
L 231.912284 332.12 
L 231.912284 117.103913 
L 225.111557 117.103913 
z
" clip-path="url(#pe201b43967)" style="fill: #bc7af9; fill-opacity: 0.75; stroke: #ffffff; stroke-width: 0.634091; stroke-linejoin: miter"/>
   </g>
   <g id="patch_20">
    <path d="M 231.912284 332.12 
L 238.713011 332.12 
L 238.713011 133.331542 
L 231.912284 133.331542 
z
" clip-path="url(#pe201b43967)" style="fill: #bc7af9; fill-opacity: 0.75; stroke: #ffffff; stroke-width: 0.634091; stroke-linejoin: miter"/>
   </g>
   <g id="patch_21">
    <path d="M 238.713011 332.12 
L 245.513738 332.12 
L 245.513738 152.348295 
L 238.713011 152.348295 
z
" clip-path="url(#pe201b43967)" style="fill: #bc7af9; fill-opacity: 0.75; stroke: #ffffff; stroke-width: 0.634091; stroke-linejoin: miter"/>
   </g>
   <g id="patch_22">
    <path d="M 245.513738 332.12 
L 252.314465 332.12 
L 252.314465 183.53577 
L 245.513738 183.53577 
z
" clip-path="url(#pe201b43967)" style="fill: #bc7af9; fill-opacity: 0.75; stroke: #ffffff; stroke-width: 0.634091; stroke-linejoin: miter"/>
   </g>
   <g id="patch_23">
    <path d="M 252.314465 332.12 
L 259.115192 332.12 
L 259.115192 215.991029 
L 252.314465 215.991029 
z
" clip-path="url(#pe201b43967)" style="fill: #bc7af9; fill-opacity: 0.75; stroke: #ffffff; stroke-width: 0.634091; stroke-linejoin: miter"/>
   </g>
   <g id="patch_24">
    <path d="M 259.115192 332.12 
L 265.915919 332.12 
L 265.915919 236.529122 
L 259.115192 236.529122 
z
" clip-path="url(#pe201b43967)" style="fill: #bc7af9; fill-opacity: 0.75; stroke: #ffffff; stroke-width: 0.634091; stroke-linejoin: miter"/>
   </g>
   <g id="patch_25">
    <path d="M 265.915919 332.12 
L 272.716646 332.12 
L 272.716646 262.391906 
L 265.915919 262.391906 
z
" clip-path="url(#pe201b43967)" style="fill: #bc7af9; fill-opacity: 0.75; stroke: #ffffff; stroke-width: 0.634091; stroke-linejoin: miter"/>
   </g>
   <g id="patch_26">
    <path d="M 272.716646 332.12 
L 279.517373 332.12 
L 279.517373 283.690669 
L 272.716646 283.690669 
z
" clip-path="url(#pe201b43967)" style="fill: #bc7af9; fill-opacity: 0.75; stroke: #ffffff; stroke-width: 0.634091; stroke-linejoin: miter"/>
   </g>
   <g id="patch_27">
    <path d="M 279.517373 332.12 
L 286.3181 332.12 
L 286.3181 293.325824 
L 279.517373 293.325824 
z
" clip-path="url(#pe201b43967)" style="fill: #bc7af9; fill-opacity: 0.75; stroke: #ffffff; stroke-width: 0.634091; stroke-linejoin: miter"/>
   </g>
   <g id="patch_28">
    <path d="M 286.3181 332.12 
L 293.118827 332.12 
L 293.118827 306.764329 
L 286.3181 306.764329 
z
" clip-path="url(#pe201b43967)" style="fill: #bc7af9; fill-opacity: 0.75; stroke: #ffffff; stroke-width: 0.634091; stroke-linejoin: miter"/>
   </g>
   <g id="patch_29">
    <path d="M 293.118827 332.12 
L 299.919554 332.12 
L 299.919554 314.878144 
L 293.118827 314.878144 
z
" clip-path="url(#pe201b43967)" style="fill: #bc7af9; fill-opacity: 0.75; stroke: #ffffff; stroke-width: 0.634091; stroke-linejoin: miter"/>
   </g>
   <g id="patch_30">
    <path d="M 299.919554 332.12 
L 306.720281 332.12 
L 306.720281 320.709948 
L 299.919554 320.709948 
z
" clip-path="url(#pe201b43967)" style="fill: #bc7af9; fill-opacity: 0.75; stroke: #ffffff; stroke-width: 0.634091; stroke-linejoin: miter"/>
   </g>
   <g id="patch_31">
    <path d="M 306.720281 332.12 
L 313.521008 332.12 
L 313.521008 325.273969 
L 306.720281 325.273969 
z
" clip-path="url(#pe201b43967)" style="fill: #bc7af9; fill-opacity: 0.75; stroke: #ffffff; stroke-width: 0.634091; stroke-linejoin: miter"/>
   </g>
   <g id="patch_32">
    <path d="M 313.521008 332.12 
L 320.321735 332.12 
L 320.321735 329.07732 
L 313.521008 329.07732 
z
" clip-path="url(#pe201b43967)" style="fill: #bc7af9; fill-opacity: 0.75; stroke: #ffffff; stroke-width: 0.634091; stroke-linejoin: miter"/>
   </g>
   <g id="patch_33">
    <path d="M 320.321735 332.12 
L 327.122462 332.12 
L 327.122462 330.345103 
L 320.321735 330.345103 
z
" clip-path="url(#pe201b43967)" style="fill: #bc7af9; fill-opacity: 0.75; stroke: #ffffff; stroke-width: 0.634091; stroke-linejoin: miter"/>
   </g>
   <g id="patch_34">
    <path d="M 327.122462 332.12 
L 333.923189 332.12 
L 333.923189 330.345103 
L 327.122462 330.345103 
z
" clip-path="url(#pe201b43967)" style="fill: #bc7af9; fill-opacity: 0.75; stroke: #ffffff; stroke-width: 0.634091; stroke-linejoin: miter"/>
   </g>
   <g id="patch_35">
    <path d="M 333.923189 332.12 
L 340.723917 332.12 
L 340.723917 331.866443 
L 333.923189 331.866443 
z
" clip-path="url(#pe201b43967)" style="fill: #bc7af9; fill-opacity: 0.75; stroke: #ffffff; stroke-width: 0.634091; stroke-linejoin: miter"/>
   </g>
   <g id="patch_36">
    <path d="M 340.723917 332.12 
L 347.524644 332.12 
L 347.524644 332.12 
L 340.723917 332.12 
z
" clip-path="url(#pe201b43967)" style="fill: #bc7af9; fill-opacity: 0.75; stroke: #ffffff; stroke-width: 0.634091; stroke-linejoin: miter"/>
   </g>
   <g id="patch_37">
    <path d="M 347.524644 332.12 
L 354.325371 332.12 
L 354.325371 331.612887 
L 347.524644 331.612887 
z
" clip-path="url(#pe201b43967)" style="fill: #bc7af9; fill-opacity: 0.75; stroke: #ffffff; stroke-width: 0.634091; stroke-linejoin: miter"/>
   </g>
   <g id="patch_38">
    <path d="M 354.325371 332.12 
L 361.126098 332.12 
L 361.126098 332.12 
L 354.325371 332.12 
z
" clip-path="url(#pe201b43967)" style="fill: #bc7af9; fill-opacity: 0.75; stroke: #ffffff; stroke-width: 0.634091; stroke-linejoin: miter"/>
   </g>
   <g id="patch_39">
    <path d="M 361.126098 332.12 
L 367.926825 332.12 
L 367.926825 332.12 
L 361.126098 332.12 
z
" clip-path="url(#pe201b43967)" style="fill: #bc7af9; fill-opacity: 0.75; stroke: #ffffff; stroke-width: 0.634091; stroke-linejoin: miter"/>
   </g>
   <g id="patch_40">
    <path d="M 367.926825 332.12 
L 374.727552 332.12 
L 374.727552 332.12 
L 367.926825 332.12 
z
" clip-path="url(#pe201b43967)" style="fill: #bc7af9; fill-opacity: 0.75; stroke: #ffffff; stroke-width: 0.634091; stroke-linejoin: miter"/>
   </g>
   <g id="patch_41">
    <path d="M 374.727552 332.12 
L 381.528279 332.12 
L 381.528279 332.12 
L 374.727552 332.12 
z
" clip-path="url(#pe201b43967)" style="fill: #bc7af9; fill-opacity: 0.75; stroke: #ffffff; stroke-width: 0.634091; stroke-linejoin: miter"/>
   </g>
   <g id="patch_42">
    <path d="M 381.528279 332.12 
L 388.329006 332.12 
L 388.329006 331.866443 
L 381.528279 331.866443 
z
" clip-path="url(#pe201b43967)" style="fill: #bc7af9; fill-opacity: 0.75; stroke: #ffffff; stroke-width: 0.634091; stroke-linejoin: miter"/>
   </g>
   <g id="line2d_14">
    <path d="M 163.368535 332.12 
L 163.368535 82.392 
" clip-path="url(#pe201b43967)" style="fill: none; stroke-dasharray: 11.1,4.8; stroke-dashoffset: 0; stroke: #ffb000; stroke-width: 3"/>
   </g>
   <g id="line2d_15">
    <path d="M 287.479999 332.12 
L 287.479999 82.392 
" clip-path="url(#pe201b43967)" style="fill: none; stroke-dasharray: 11.1,4.8; stroke-dashoffset: 0; stroke: #ffb000; stroke-width: 3"/>
   </g>
   <g id="line2d_16">
    <path d="M 62.165369 332.12 
L 62.165369 82.392 
" clip-path="url(#pe201b43967)" style="fill: none; stroke: #da0c81; stroke-width: 2; stroke-linecap: round"/>
   </g>
   <g id="patch_43">
    <path d="M 45.857188 332.12 
L 45.857188 82.392 
" style="fill: none; stroke: #262626; stroke-width: 0.8; stroke-linejoin: miter; stroke-linecap: square"/>
   </g>
   <g id="patch_44">
    <path d="M 404.637187 332.12 
L 404.637187 82.392 
" style="fill: none; stroke: #262626; stroke-width: 0.8; stroke-linejoin: miter; stroke-linecap: square"/>
   </g>
   <g id="patch_45">
    <path d="M 45.857187 332.12 
L 404.637187 332.12 
" style="fill: none; stroke: #262626; stroke-width: 0.8; stroke-linejoin: miter; stroke-linecap: square"/>
   </g>
   <g id="patch_46">
    <path d="M 45.857187 82.392 
L 404.637187 82.392 
" style="fill: none; stroke: #262626; stroke-width: 0.8; stroke-linejoin: miter; stroke-linecap: square"/>
   </g>
   <g id="text_15">
    <!-- Sampling Distribution by Confidence Interval 95% -->
    <g style="fill: #262626" transform="translate(71.563281 67.392) scale(0.14 -0.14)">
     <defs>
      <path id="ArialMT-53" d="M 288 1472 
L 859 1522 
Q 900 1178 1048 958 
Q 1197 738 1509 602 
Q 1822 466 2213 466 
Q 2559 466 2825 569 
Q 3091 672 3220 851 
Q 3350 1031 3350 1244 
Q 3350 1459 3225 1620 
Q 3100 1781 2813 1891 
Q 2628 1963 1997 2114 
Q 1366 2266 1113 2400 
Q 784 2572 623 2826 
Q 463 3081 463 3397 
Q 463 3744 659 4045 
Q 856 4347 1234 4503 
Q 1613 4659 2075 4659 
Q 2584 4659 2973 4495 
Q 3363 4331 3572 4012 
Q 3781 3694 3797 3291 
L 3216 3247 
Q 3169 3681 2898 3903 
Q 2628 4125 2100 4125 
Q 1550 4125 1298 3923 
Q 1047 3722 1047 3438 
Q 1047 3191 1225 3031 
Q 1400 2872 2139 2705 
Q 2878 2538 3153 2413 
Q 3553 2228 3743 1945 
Q 3934 1663 3934 1294 
Q 3934 928 3725 604 
Q 3516 281 3123 101 
Q 2731 -78 2241 -78 
Q 1619 -78 1198 103 
Q 778 284 539 648 
Q 300 1013 288 1472 
z
" transform="scale(0.015625)"/>
      <path id="ArialMT-61" d="M 2588 409 
Q 2275 144 1986 34 
Q 1697 -75 1366 -75 
Q 819 -75 525 192 
Q 231 459 231 875 
Q 231 1119 342 1320 
Q 453 1522 633 1644 
Q 813 1766 1038 1828 
Q 1203 1872 1538 1913 
Q 2219 1994 2541 2106 
Q 2544 2222 2544 2253 
Q 2544 2597 2384 2738 
Q 2169 2928 1744 2928 
Q 1347 2928 1158 2789 
Q 969 2650 878 2297 
L 328 2372 
Q 403 2725 575 2942 
Q 747 3159 1072 3276 
Q 1397 3394 1825 3394 
Q 2250 3394 2515 3294 
Q 2781 3194 2906 3042 
Q 3031 2891 3081 2659 
Q 3109 2516 3109 2141 
L 3109 1391 
Q 3109 606 3145 398 
Q 3181 191 3288 0 
L 2700 0 
Q 2613 175 2588 409 
z
M 2541 1666 
Q 2234 1541 1622 1453 
Q 1275 1403 1131 1340 
Q 988 1278 909 1158 
Q 831 1038 831 891 
Q 831 666 1001 516 
Q 1172 366 1500 366 
Q 1825 366 2078 508 
Q 2331 650 2450 897 
Q 2541 1088 2541 1459 
L 2541 1666 
z
" transform="scale(0.015625)"/>
      <path id="ArialMT-6d" d="M 422 0 
L 422 3319 
L 925 3319 
L 925 2853 
Q 1081 3097 1340 3245 
Q 1600 3394 1931 3394 
Q 2300 3394 2536 3241 
Q 2772 3088 2869 2813 
Q 3263 3394 3894 3394 
Q 4388 3394 4653 3120 
Q 4919 2847 4919 2278 
L 4919 0 
L 4359 0 
L 4359 2091 
Q 4359 2428 4304 2576 
Q 4250 2725 4106 2815 
Q 3963 2906 3769 2906 
Q 3419 2906 3187 2673 
Q 2956 2441 2956 1928 
L 2956 0 
L 2394 0 
L 2394 2156 
Q 2394 2531 2256 2718 
Q 2119 2906 1806 2906 
Q 1569 2906 1367 2781 
Q 1166 2656 1075 2415 
Q 984 2175 984 1722 
L 984 0 
L 422 0 
z
" transform="scale(0.015625)"/>
      <path id="ArialMT-70" d="M 422 -1272 
L 422 3319 
L 934 3319 
L 934 2888 
Q 1116 3141 1344 3267 
Q 1572 3394 1897 3394 
Q 2322 3394 2647 3175 
Q 2972 2956 3137 2557 
Q 3303 2159 3303 1684 
Q 3303 1175 3120 767 
Q 2938 359 2589 142 
Q 2241 -75 1856 -75 
Q 1575 -75 1351 44 
Q 1128 163 984 344 
L 984 -1272 
L 422 -1272 
z
M 931 1641 
Q 931 1000 1190 694 
Q 1450 388 1819 388 
Q 2194 388 2461 705 
Q 2728 1022 2728 1688 
Q 2728 2322 2467 2637 
Q 2206 2953 1844 2953 
Q 1484 2953 1207 2617 
Q 931 2281 931 1641 
z
" transform="scale(0.015625)"/>
      <path id="ArialMT-6c" d="M 409 0 
L 409 4581 
L 972 4581 
L 972 0 
L 409 0 
z
" transform="scale(0.015625)"/>
      <path id="ArialMT-69" d="M 425 3934 
L 425 4581 
L 988 4581 
L 988 3934 
L 425 3934 
z
M 425 0 
L 425 3319 
L 988 3319 
L 988 0 
L 425 0 
z
" transform="scale(0.015625)"/>
      <path id="ArialMT-67" d="M 319 -275 
L 866 -356 
Q 900 -609 1056 -725 
Q 1266 -881 1628 -881 
Q 2019 -881 2231 -725 
Q 2444 -569 2519 -288 
Q 2563 -116 2559 434 
Q 2191 0 1641 0 
Q 956 0 581 494 
Q 206 988 206 1678 
Q 206 2153 378 2554 
Q 550 2956 876 3175 
Q 1203 3394 1644 3394 
Q 2231 3394 2613 2919 
L 2613 3319 
L 3131 3319 
L 3131 450 
Q 3131 -325 2973 -648 
Q 2816 -972 2473 -1159 
Q 2131 -1347 1631 -1347 
Q 1038 -1347 672 -1080 
Q 306 -813 319 -275 
z
M 784 1719 
Q 784 1066 1043 766 
Q 1303 466 1694 466 
Q 2081 466 2343 764 
Q 2606 1063 2606 1700 
Q 2606 2309 2336 2618 
Q 2066 2928 1684 2928 
Q 1309 2928 1046 2623 
Q 784 2319 784 1719 
z
" transform="scale(0.015625)"/>
      <path id="ArialMT-20" transform="scale(0.015625)"/>
      <path id="ArialMT-44" d="M 494 0 
L 494 4581 
L 2072 4581 
Q 2606 4581 2888 4516 
Q 3281 4425 3559 4188 
Q 3922 3881 4101 3404 
Q 4281 2928 4281 2316 
Q 4281 1794 4159 1391 
Q 4038 988 3847 723 
Q 3656 459 3429 307 
Q 3203 156 2883 78 
Q 2563 0 2147 0 
L 494 0 
z
M 1100 541 
L 2078 541 
Q 2531 541 2789 625 
Q 3047 709 3200 863 
Q 3416 1078 3536 1442 
Q 3656 1806 3656 2325 
Q 3656 3044 3420 3430 
Q 3184 3816 2847 3947 
Q 2603 4041 2063 4041 
L 1100 4041 
L 1100 541 
z
" transform="scale(0.015625)"/>
      <path id="ArialMT-73" d="M 197 991 
L 753 1078 
Q 800 744 1014 566 
Q 1228 388 1613 388 
Q 2000 388 2187 545 
Q 2375 703 2375 916 
Q 2375 1106 2209 1216 
Q 2094 1291 1634 1406 
Q 1016 1563 777 1677 
Q 538 1791 414 1992 
Q 291 2194 291 2438 
Q 291 2659 392 2848 
Q 494 3038 669 3163 
Q 800 3259 1026 3326 
Q 1253 3394 1513 3394 
Q 1903 3394 2198 3281 
Q 2494 3169 2634 2976 
Q 2775 2784 2828 2463 
L 2278 2388 
Q 2241 2644 2061 2787 
Q 1881 2931 1553 2931 
Q 1166 2931 1000 2803 
Q 834 2675 834 2503 
Q 834 2394 903 2306 
Q 972 2216 1119 2156 
Q 1203 2125 1616 2013 
Q 2213 1853 2448 1751 
Q 2684 1650 2818 1456 
Q 2953 1263 2953 975 
Q 2953 694 2789 445 
Q 2625 197 2315 61 
Q 2006 -75 1616 -75 
Q 969 -75 630 194 
Q 291 463 197 991 
z
" transform="scale(0.015625)"/>
      <path id="ArialMT-72" d="M 416 0 
L 416 3319 
L 922 3319 
L 922 2816 
Q 1116 3169 1280 3281 
Q 1444 3394 1641 3394 
Q 1925 3394 2219 3213 
L 2025 2691 
Q 1819 2813 1613 2813 
Q 1428 2813 1281 2702 
Q 1134 2591 1072 2394 
Q 978 2094 978 1738 
L 978 0 
L 416 0 
z
" transform="scale(0.015625)"/>
      <path id="ArialMT-62" d="M 941 0 
L 419 0 
L 419 4581 
L 981 4581 
L 981 2947 
Q 1338 3394 1891 3394 
Q 2197 3394 2470 3270 
Q 2744 3147 2920 2923 
Q 3097 2700 3197 2384 
Q 3297 2069 3297 1709 
Q 3297 856 2875 390 
Q 2453 -75 1863 -75 
Q 1275 -75 941 416 
L 941 0 
z
M 934 1684 
Q 934 1088 1097 822 
Q 1363 388 1816 388 
Q 2184 388 2453 708 
Q 2722 1028 2722 1663 
Q 2722 2313 2464 2622 
Q 2206 2931 1841 2931 
Q 1472 2931 1203 2611 
Q 934 2291 934 1684 
z
" transform="scale(0.015625)"/>
      <path id="ArialMT-79" d="M 397 -1278 
L 334 -750 
Q 519 -800 656 -800 
Q 844 -800 956 -737 
Q 1069 -675 1141 -563 
Q 1194 -478 1313 -144 
Q 1328 -97 1363 -6 
L 103 3319 
L 709 3319 
L 1400 1397 
Q 1534 1031 1641 628 
Q 1738 1016 1872 1384 
L 2581 3319 
L 3144 3319 
L 1881 -56 
Q 1678 -603 1566 -809 
Q 1416 -1088 1222 -1217 
Q 1028 -1347 759 -1347 
Q 597 -1347 397 -1278 
z
" transform="scale(0.015625)"/>
      <path id="ArialMT-66" d="M 556 0 
L 556 2881 
L 59 2881 
L 59 3319 
L 556 3319 
L 556 3672 
Q 556 4006 616 4169 
Q 697 4388 901 4523 
Q 1106 4659 1475 4659 
Q 1713 4659 2000 4603 
L 1916 4113 
Q 1741 4144 1584 4144 
Q 1328 4144 1222 4034 
Q 1116 3925 1116 3625 
L 1116 3319 
L 1763 3319 
L 1763 2881 
L 1116 2881 
L 1116 0 
L 556 0 
z
" transform="scale(0.015625)"/>
      <path id="ArialMT-64" d="M 2575 0 
L 2575 419 
Q 2259 -75 1647 -75 
Q 1250 -75 917 144 
Q 584 363 401 755 
Q 219 1147 219 1656 
Q 219 2153 384 2558 
Q 550 2963 881 3178 
Q 1213 3394 1622 3394 
Q 1922 3394 2156 3267 
Q 2391 3141 2538 2938 
L 2538 4581 
L 3097 4581 
L 3097 0 
L 2575 0 
z
M 797 1656 
Q 797 1019 1065 703 
Q 1334 388 1700 388 
Q 2069 388 2326 689 
Q 2584 991 2584 1609 
Q 2584 2291 2321 2609 
Q 2059 2928 1675 2928 
Q 1300 2928 1048 2622 
Q 797 2316 797 1656 
z
" transform="scale(0.015625)"/>
      <path id="ArialMT-65" d="M 2694 1069 
L 3275 997 
Q 3138 488 2766 206 
Q 2394 -75 1816 -75 
Q 1088 -75 661 373 
Q 234 822 234 1631 
Q 234 2469 665 2931 
Q 1097 3394 1784 3394 
Q 2450 3394 2872 2941 
Q 3294 2488 3294 1666 
Q 3294 1616 3291 1516 
L 816 1516 
Q 847 969 1125 678 
Q 1403 388 1819 388 
Q 2128 388 2347 550 
Q 2566 713 2694 1069 
z
M 847 1978 
L 2700 1978 
Q 2663 2397 2488 2606 
Q 2219 2931 1791 2931 
Q 1403 2931 1139 2672 
Q 875 2413 847 1978 
z
" transform="scale(0.015625)"/>
      <path id="ArialMT-63" d="M 2588 1216 
L 3141 1144 
Q 3050 572 2676 248 
Q 2303 -75 1759 -75 
Q 1078 -75 664 370 
Q 250 816 250 1647 
Q 250 2184 428 2587 
Q 606 2991 970 3192 
Q 1334 3394 1763 3394 
Q 2303 3394 2647 3120 
Q 2991 2847 3088 2344 
L 2541 2259 
Q 2463 2594 2264 2762 
Q 2066 2931 1784 2931 
Q 1359 2931 1093 2626 
Q 828 2322 828 1663 
Q 828 994 1084 691 
Q 1341 388 1753 388 
Q 2084 388 2306 591 
Q 2528 794 2588 1216 
z
" transform="scale(0.015625)"/>
      <path id="ArialMT-49" d="M 597 0 
L 597 4581 
L 1203 4581 
L 1203 0 
L 597 0 
z
" transform="scale(0.015625)"/>
      <path id="ArialMT-76" d="M 1344 0 
L 81 3319 
L 675 3319 
L 1388 1331 
Q 1503 1009 1600 663 
Q 1675 925 1809 1294 
L 2547 3319 
L 3125 3319 
L 1869 0 
L 1344 0 
z
" transform="scale(0.015625)"/>
      <path id="ArialMT-39" d="M 350 1059 
L 891 1109 
Q 959 728 1153 556 
Q 1347 384 1650 384 
Q 1909 384 2104 503 
Q 2300 622 2425 820 
Q 2550 1019 2634 1356 
Q 2719 1694 2719 2044 
Q 2719 2081 2716 2156 
Q 2547 1888 2255 1720 
Q 1963 1553 1622 1553 
Q 1053 1553 659 1965 
Q 266 2378 266 3053 
Q 266 3750 677 4175 
Q 1088 4600 1706 4600 
Q 2153 4600 2523 4359 
Q 2894 4119 3086 3673 
Q 3278 3228 3278 2384 
Q 3278 1506 3087 986 
Q 2897 466 2520 194 
Q 2144 -78 1638 -78 
Q 1100 -78 759 220 
Q 419 519 350 1059 
z
M 2653 3081 
Q 2653 3566 2395 3850 
Q 2138 4134 1775 4134 
Q 1400 4134 1122 3828 
Q 844 3522 844 3034 
Q 844 2597 1108 2323 
Q 1372 2050 1759 2050 
Q 2150 2050 2401 2323 
Q 2653 2597 2653 3081 
z
" transform="scale(0.015625)"/>
      <path id="ArialMT-25" d="M 372 3481 
Q 372 3972 619 4315 
Q 866 4659 1334 4659 
Q 1766 4659 2048 4351 
Q 2331 4044 2331 3447 
Q 2331 2866 2045 2552 
Q 1759 2238 1341 2238 
Q 925 2238 648 2547 
Q 372 2856 372 3481 
z
M 1350 4272 
Q 1141 4272 1002 4090 
Q 863 3909 863 3425 
Q 863 2984 1003 2804 
Q 1144 2625 1350 2625 
Q 1563 2625 1702 2806 
Q 1841 2988 1841 3469 
Q 1841 3913 1700 4092 
Q 1559 4272 1350 4272 
z
M 1353 -169 
L 3859 4659 
L 4316 4659 
L 1819 -169 
L 1353 -169 
z
M 3334 1075 
Q 3334 1569 3581 1911 
Q 3828 2253 4300 2253 
Q 4731 2253 5014 1945 
Q 5297 1638 5297 1041 
Q 5297 459 5011 145 
Q 4725 -169 4303 -169 
Q 3888 -169 3611 142 
Q 3334 453 3334 1075 
z
M 4316 1866 
Q 4103 1866 3964 1684 
Q 3825 1503 3825 1019 
Q 3825 581 3965 400 
Q 4106 219 4313 219 
Q 4528 219 4667 400 
Q 4806 581 4806 1063 
Q 4806 1506 4665 1686 
Q 4525 1866 4316 1866 
z
" transform="scale(0.015625)"/>
     </defs>
     <use xlink:href="#ArialMT-53"/>
     <use xlink:href="#ArialMT-61" x="66.699219"/>
     <use xlink:href="#ArialMT-6d" x="122.314453"/>
     <use xlink:href="#ArialMT-70" x="205.615234"/>
     <use xlink:href="#ArialMT-6c" x="261.230469"/>
     <use xlink:href="#ArialMT-69" x="283.447266"/>
     <use xlink:href="#ArialMT-6e" x="305.664062"/>
     <use xlink:href="#ArialMT-67" x="361.279297"/>
     <use xlink:href="#ArialMT-20" x="416.894531"/>
     <use xlink:href="#ArialMT-44" x="444.677734"/>
     <use xlink:href="#ArialMT-69" x="516.894531"/>
     <use xlink:href="#ArialMT-73" x="539.111328"/>
     <use xlink:href="#ArialMT-74" x="589.111328"/>
     <use xlink:href="#ArialMT-72" x="616.894531"/>
     <use xlink:href="#ArialMT-69" x="650.195312"/>
     <use xlink:href="#ArialMT-62" x="672.412109"/>
     <use xlink:href="#ArialMT-75" x="728.027344"/>
     <use xlink:href="#ArialMT-74" x="783.642578"/>
     <use xlink:href="#ArialMT-69" x="811.425781"/>
     <use xlink:href="#ArialMT-6f" x="833.642578"/>
     <use xlink:href="#ArialMT-6e" x="889.257812"/>
     <use xlink:href="#ArialMT-20" x="944.873047"/>
     <use xlink:href="#ArialMT-62" x="972.65625"/>
     <use xlink:href="#ArialMT-79" x="1028.271484"/>
     <use xlink:href="#ArialMT-20" x="1078.271484"/>
     <use xlink:href="#ArialMT-43" x="1106.054688"/>
     <use xlink:href="#ArialMT-6f" x="1178.271484"/>
     <use xlink:href="#ArialMT-6e" x="1233.886719"/>
     <use xlink:href="#ArialMT-66" x="1289.501953"/>
     <use xlink:href="#ArialMT-69" x="1317.285156"/>
     <use xlink:href="#ArialMT-64" x="1339.501953"/>
     <use xlink:href="#ArialMT-65" x="1395.117188"/>
     <use xlink:href="#ArialMT-6e" x="1450.732422"/>
     <use xlink:href="#ArialMT-63" x="1506.347656"/>
     <use xlink:href="#ArialMT-65" x="1556.347656"/>
     <use xlink:href="#ArialMT-20" x="1611.962891"/>
     <use xlink:href="#ArialMT-49" x="1639.746094"/>
     <use xlink:href="#ArialMT-6e" x="1667.529297"/>
     <use xlink:href="#ArialMT-74" x="1723.144531"/>
     <use xlink:href="#ArialMT-65" x="1750.927734"/>
     <use xlink:href="#ArialMT-72" x="1806.542969"/>
     <use xlink:href="#ArialMT-76" x="1839.84375"/>
     <use xlink:href="#ArialMT-61" x="1889.84375"/>
     <use xlink:href="#ArialMT-6c" x="1945.458984"/>
     <use xlink:href="#ArialMT-20" x="1967.675781"/>
     <use xlink:href="#ArialMT-39" x="1995.458984"/>
     <use xlink:href="#ArialMT-35" x="2051.074219"/>
     <use xlink:href="#ArialMT-25" x="2106.689453"/>
    </g>
   </g>
  </g>
  <g id="axes_2">
   <g id="patch_47">
    <path d="M 418.937187 332.12 
L 777.717187 332.12 
L 777.717187 82.392 
L 418.937187 82.392 
z
" style="fill: #ffffff"/>
   </g>
   <g id="matplotlib.axis_3">
    <g id="xtick_9">
     <g id="line2d_17">
      <g>
       <use xlink:href="#ma0ea4dd00d" x="450.721953" y="332.12" style="fill: #262626; stroke: #262626; stroke-width: 0.8"/>
      </g>
     </g>
     <g id="text_16">
      <!-- -1.5 -->
      <g style="fill: #262626" transform="translate(442.107109 346.277812) scale(0.1 -0.1)">
       <defs>
        <path id="ArialMT-2d" d="M 203 1375 
L 203 1941 
L 1931 1941 
L 1931 1375 
L 203 1375 
z
" transform="scale(0.015625)"/>
       </defs>
       <use xlink:href="#ArialMT-2d"/>
       <use xlink:href="#ArialMT-31" x="33.300781"/>
       <use xlink:href="#ArialMT-2e" x="88.916016"/>
       <use xlink:href="#ArialMT-35" x="116.699219"/>
      </g>
     </g>
    </g>
    <g id="xtick_10">
     <g id="line2d_18">
      <g>
       <use xlink:href="#ma0ea4dd00d" x="498.926869" y="332.12" style="fill: #262626; stroke: #262626; stroke-width: 0.8"/>
      </g>
     </g>
     <g id="text_17">
      <!-- -1.0 -->
      <g style="fill: #262626" transform="translate(490.312025 346.277812) scale(0.1 -0.1)">
       <use xlink:href="#ArialMT-2d"/>
       <use xlink:href="#ArialMT-31" x="33.300781"/>
       <use xlink:href="#ArialMT-2e" x="88.916016"/>
       <use xlink:href="#ArialMT-30" x="116.699219"/>
      </g>
     </g>
    </g>
    <g id="xtick_11">
     <g id="line2d_19">
      <g>
       <use xlink:href="#ma0ea4dd00d" x="547.131785" y="332.12" style="fill: #262626; stroke: #262626; stroke-width: 0.8"/>
      </g>
     </g>
     <g id="text_18">
      <!-- -0.5 -->
      <g style="fill: #262626" transform="translate(538.516941 346.277812) scale(0.1 -0.1)">
       <use xlink:href="#ArialMT-2d"/>
       <use xlink:href="#ArialMT-30" x="33.300781"/>
       <use xlink:href="#ArialMT-2e" x="88.916016"/>
       <use xlink:href="#ArialMT-35" x="116.699219"/>
      </g>
     </g>
    </g>
    <g id="xtick_12">
     <g id="line2d_20">
      <g>
       <use xlink:href="#ma0ea4dd00d" x="595.336701" y="332.12" style="fill: #262626; stroke: #262626; stroke-width: 0.8"/>
      </g>
     </g>
     <g id="text_19">
      <!-- 0.0 -->
      <g style="fill: #262626" transform="translate(588.386701 346.277812) scale(0.1 -0.1)">
       <use xlink:href="#ArialMT-30"/>
       <use xlink:href="#ArialMT-2e" x="55.615234"/>
       <use xlink:href="#ArialMT-30" x="83.398438"/>
      </g>
     </g>
    </g>
    <g id="xtick_13">
     <g id="line2d_21">
      <g>
       <use xlink:href="#ma0ea4dd00d" x="643.541616" y="332.12" style="fill: #262626; stroke: #262626; stroke-width: 0.8"/>
      </g>
     </g>
     <g id="text_20">
      <!-- 0.5 -->
      <g style="fill: #262626" transform="translate(636.591616 346.277812) scale(0.1 -0.1)">
       <use xlink:href="#ArialMT-30"/>
       <use xlink:href="#ArialMT-2e" x="55.615234"/>
       <use xlink:href="#ArialMT-35" x="83.398438"/>
      </g>
     </g>
    </g>
    <g id="xtick_14">
     <g id="line2d_22">
      <g>
       <use xlink:href="#ma0ea4dd00d" x="691.746532" y="332.12" style="fill: #262626; stroke: #262626; stroke-width: 0.8"/>
      </g>
     </g>
     <g id="text_21">
      <!-- 1.0 -->
      <g style="fill: #262626" transform="translate(684.796532 346.277812) scale(0.1 -0.1)">
       <use xlink:href="#ArialMT-31"/>
       <use xlink:href="#ArialMT-2e" x="55.615234"/>
       <use xlink:href="#ArialMT-30" x="83.398438"/>
      </g>
     </g>
    </g>
    <g id="xtick_15">
     <g id="line2d_23">
      <g>
       <use xlink:href="#ma0ea4dd00d" x="739.951448" y="332.12" style="fill: #262626; stroke: #262626; stroke-width: 0.8"/>
      </g>
     </g>
     <g id="text_22">
      <!-- 1.5 -->
      <g style="fill: #262626" transform="translate(733.001448 346.277812) scale(0.1 -0.1)">
       <use xlink:href="#ArialMT-31"/>
       <use xlink:href="#ArialMT-2e" x="55.615234"/>
       <use xlink:href="#ArialMT-35" x="83.398438"/>
      </g>
     </g>
    </g>
   </g>
   <g id="matplotlib.axis_4">
    <g id="ytick_6">
     <g id="line2d_24">
      <g>
       <use xlink:href="#m96d595c9d8" x="418.937187" y="332.12" style="fill: #262626; stroke: #262626; stroke-width: 0.8"/>
      </g>
     </g>
    </g>
    <g id="ytick_7">
     <g id="line2d_25">
      <g>
       <use xlink:href="#m96d595c9d8" x="418.937187" y="281.408659" style="fill: #262626; stroke: #262626; stroke-width: 0.8"/>
      </g>
     </g>
    </g>
    <g id="ytick_8">
     <g id="line2d_26">
      <g>
       <use xlink:href="#m96d595c9d8" x="418.937187" y="230.697317" style="fill: #262626; stroke: #262626; stroke-width: 0.8"/>
      </g>
     </g>
    </g>
    <g id="ytick_9">
     <g id="line2d_27">
      <g>
       <use xlink:href="#m96d595c9d8" x="418.937187" y="179.985976" style="fill: #262626; stroke: #262626; stroke-width: 0.8"/>
      </g>
     </g>
    </g>
    <g id="ytick_10">
     <g id="line2d_28">
      <g>
       <use xlink:href="#m96d595c9d8" x="418.937187" y="129.274635" style="fill: #262626; stroke: #262626; stroke-width: 0.8"/>
      </g>
     </g>
    </g>
   </g>
   <g id="patch_48">
    <path d="M 435.245369 332.12 
L 442.577026 332.12 
L 442.577026 331.866443 
L 435.245369 331.866443 
z
" clip-path="url(#p80d2bc3be9)" style="fill: #da0c81; fill-opacity: 0.75; stroke: #ffffff; stroke-width: 0.634091; stroke-linejoin: miter"/>
   </g>
   <g id="patch_49">
    <path d="M 442.577026 332.12 
L 449.908683 332.12 
L 449.908683 332.12 
L 442.577026 332.12 
z
" clip-path="url(#p80d2bc3be9)" style="fill: #da0c81; fill-opacity: 0.75; stroke: #ffffff; stroke-width: 0.634091; stroke-linejoin: miter"/>
   </g>
   <g id="patch_50">
    <path d="M 449.908683 332.12 
L 457.24034 332.12 
L 457.24034 332.12 
L 449.908683 332.12 
z
" clip-path="url(#p80d2bc3be9)" style="fill: #da0c81; fill-opacity: 0.75; stroke: #ffffff; stroke-width: 0.634091; stroke-linejoin: miter"/>
   </g>
   <g id="patch_51">
    <path d="M 457.24034 332.12 
L 464.571997 332.12 
L 464.571997 332.12 
L 457.24034 332.12 
z
" clip-path="url(#p80d2bc3be9)" style="fill: #da0c81; fill-opacity: 0.75; stroke: #ffffff; stroke-width: 0.634091; stroke-linejoin: miter"/>
   </g>
   <g id="patch_52">
    <path d="M 464.571997 332.12 
L 471.903654 332.12 
L 471.903654 331.866443 
L 464.571997 331.866443 
z
" clip-path="url(#p80d2bc3be9)" style="fill: #da0c81; fill-opacity: 0.75; stroke: #ffffff; stroke-width: 0.634091; stroke-linejoin: miter"/>
   </g>
   <g id="patch_53">
    <path d="M 471.903654 332.12 
L 479.235311 332.12 
L 479.235311 331.866443 
L 471.903654 331.866443 
z
" clip-path="url(#p80d2bc3be9)" style="fill: #da0c81; fill-opacity: 0.75; stroke: #ffffff; stroke-width: 0.634091; stroke-linejoin: miter"/>
   </g>
   <g id="patch_54">
    <path d="M 479.235311 332.12 
L 486.566968 332.12 
L 486.566968 330.852216 
L 479.235311 330.852216 
z
" clip-path="url(#p80d2bc3be9)" style="fill: #da0c81; fill-opacity: 0.75; stroke: #ffffff; stroke-width: 0.634091; stroke-linejoin: miter"/>
   </g>
   <g id="patch_55">
    <path d="M 486.566968 332.12 
L 493.898625 332.12 
L 493.898625 331.35933 
L 486.566968 331.35933 
z
" clip-path="url(#p80d2bc3be9)" style="fill: #da0c81; fill-opacity: 0.75; stroke: #ffffff; stroke-width: 0.634091; stroke-linejoin: miter"/>
   </g>
   <g id="patch_56">
    <path d="M 493.898625 332.12 
L 501.230282 332.12 
L 501.230282 329.83799 
L 493.898625 329.83799 
z
" clip-path="url(#p80d2bc3be9)" style="fill: #da0c81; fill-opacity: 0.75; stroke: #ffffff; stroke-width: 0.634091; stroke-linejoin: miter"/>
   </g>
   <g id="patch_57">
    <path d="M 501.230282 332.12 
L 508.561939 332.12 
L 508.561939 328.823763 
L 501.230282 328.823763 
z
" clip-path="url(#p80d2bc3be9)" style="fill: #da0c81; fill-opacity: 0.75; stroke: #ffffff; stroke-width: 0.634091; stroke-linejoin: miter"/>
   </g>
   <g id="patch_58">
    <path d="M 508.561939 332.12 
L 515.893595 332.12 
L 515.893595 324.259742 
L 508.561939 324.259742 
z
" clip-path="url(#p80d2bc3be9)" style="fill: #da0c81; fill-opacity: 0.75; stroke: #ffffff; stroke-width: 0.634091; stroke-linejoin: miter"/>
   </g>
   <g id="patch_59">
    <path d="M 515.893595 332.12 
L 523.225252 332.12 
L 523.225252 318.174381 
L 515.893595 318.174381 
z
" clip-path="url(#p80d2bc3be9)" style="fill: #da0c81; fill-opacity: 0.75; stroke: #ffffff; stroke-width: 0.634091; stroke-linejoin: miter"/>
   </g>
   <g id="patch_60">
    <path d="M 523.225252 332.12 
L 530.556909 332.12 
L 530.556909 311.074793 
L 523.225252 311.074793 
z
" clip-path="url(#p80d2bc3be9)" style="fill: #da0c81; fill-opacity: 0.75; stroke: #ffffff; stroke-width: 0.634091; stroke-linejoin: miter"/>
   </g>
   <g id="patch_61">
    <path d="M 530.556909 332.12 
L 537.888566 332.12 
L 537.888566 293.579381 
L 530.556909 293.579381 
z
" clip-path="url(#p80d2bc3be9)" style="fill: #da0c81; fill-opacity: 0.75; stroke: #ffffff; stroke-width: 0.634091; stroke-linejoin: miter"/>
   </g>
   <g id="patch_62">
    <path d="M 537.888566 332.12 
L 545.220223 332.12 
L 545.220223 274.055514 
L 537.888566 274.055514 
z
" clip-path="url(#p80d2bc3be9)" style="fill: #da0c81; fill-opacity: 0.75; stroke: #ffffff; stroke-width: 0.634091; stroke-linejoin: miter"/>
   </g>
   <g id="patch_63">
    <path d="M 545.220223 332.12 
L 552.55188 332.12 
L 552.55188 251.742524 
L 545.220223 251.742524 
z
" clip-path="url(#p80d2bc3be9)" style="fill: #da0c81; fill-opacity: 0.75; stroke: #ffffff; stroke-width: 0.634091; stroke-linejoin: miter"/>
   </g>
   <g id="patch_64">
    <path d="M 552.55188 332.12 
L 559.883537 332.12 
L 559.883537 216.751699 
L 552.55188 216.751699 
z
" clip-path="url(#p80d2bc3be9)" style="fill: #da0c81; fill-opacity: 0.75; stroke: #ffffff; stroke-width: 0.634091; stroke-linejoin: miter"/>
   </g>
   <g id="patch_65">
    <path d="M 559.883537 332.12 
L 567.215194 332.12 
L 567.215194 181.760873 
L 559.883537 181.760873 
z
" clip-path="url(#p80d2bc3be9)" style="fill: #da0c81; fill-opacity: 0.75; stroke: #ffffff; stroke-width: 0.634091; stroke-linejoin: miter"/>
   </g>
   <g id="patch_66">
    <path d="M 567.215194 332.12 
L 574.546851 332.12 
L 574.546851 165.026131 
L 567.215194 165.026131 
z
" clip-path="url(#p80d2bc3be9)" style="fill: #da0c81; fill-opacity: 0.75; stroke: #ffffff; stroke-width: 0.634091; stroke-linejoin: miter"/>
   </g>
   <g id="patch_67">
    <path d="M 574.546851 332.12 
L 581.878508 332.12 
L 581.878508 142.459584 
L 574.546851 142.459584 
z
" clip-path="url(#p80d2bc3be9)" style="fill: #da0c81; fill-opacity: 0.75; stroke: #ffffff; stroke-width: 0.634091; stroke-linejoin: miter"/>
   </g>
   <g id="patch_68">
    <path d="M 581.878508 332.12 
L 589.210165 332.12 
L 589.210165 94.28381 
L 581.878508 94.28381 
z
" clip-path="url(#p80d2bc3be9)" style="fill: #da0c81; fill-opacity: 0.75; stroke: #ffffff; stroke-width: 0.634091; stroke-linejoin: miter"/>
   </g>
   <g id="patch_69">
    <path d="M 589.210165 332.12 
L 596.541822 332.12 
L 596.541822 115.83613 
L 589.210165 115.83613 
z
" clip-path="url(#p80d2bc3be9)" style="fill: #da0c81; fill-opacity: 0.75; stroke: #ffffff; stroke-width: 0.634091; stroke-linejoin: miter"/>
   </g>
   <g id="patch_70">
    <path d="M 596.541822 332.12 
L 603.873479 332.12 
L 603.873479 108.990098 
L 596.541822 108.990098 
z
" clip-path="url(#p80d2bc3be9)" style="fill: #da0c81; fill-opacity: 0.75; stroke: #ffffff; stroke-width: 0.634091; stroke-linejoin: miter"/>
   </g>
   <g id="patch_71">
    <path d="M 603.873479 332.12 
L 611.205136 332.12 
L 611.205136 111.779222 
L 603.873479 111.779222 
z
" clip-path="url(#p80d2bc3be9)" style="fill: #da0c81; fill-opacity: 0.75; stroke: #ffffff; stroke-width: 0.634091; stroke-linejoin: miter"/>
   </g>
   <g id="patch_72">
    <path d="M 611.205136 332.12 
L 618.536792 332.12 
L 618.536792 139.924017 
L 611.205136 139.924017 
z
" clip-path="url(#p80d2bc3be9)" style="fill: #da0c81; fill-opacity: 0.75; stroke: #ffffff; stroke-width: 0.634091; stroke-linejoin: miter"/>
   </g>
   <g id="patch_73">
    <path d="M 618.536792 332.12 
L 625.868449 332.12 
L 625.868449 168.575924 
L 618.536792 168.575924 
z
" clip-path="url(#p80d2bc3be9)" style="fill: #da0c81; fill-opacity: 0.75; stroke: #ffffff; stroke-width: 0.634091; stroke-linejoin: miter"/>
   </g>
   <g id="patch_74">
    <path d="M 625.868449 332.12 
L 633.200106 332.12 
L 633.200106 199.256286 
L 625.868449 199.256286 
z
" clip-path="url(#p80d2bc3be9)" style="fill: #da0c81; fill-opacity: 0.75; stroke: #ffffff; stroke-width: 0.634091; stroke-linejoin: miter"/>
   </g>
   <g id="patch_75">
    <path d="M 633.200106 332.12 
L 640.531763 332.12 
L 640.531763 241.093142 
L 633.200106 241.093142 
z
" clip-path="url(#p80d2bc3be9)" style="fill: #da0c81; fill-opacity: 0.75; stroke: #ffffff; stroke-width: 0.634091; stroke-linejoin: miter"/>
   </g>
   <g id="patch_76">
    <path d="M 640.531763 332.12 
L 647.86342 332.12 
L 647.86342 262.645462 
L 640.531763 262.645462 
z
" clip-path="url(#p80d2bc3be9)" style="fill: #da0c81; fill-opacity: 0.75; stroke: #ffffff; stroke-width: 0.634091; stroke-linejoin: miter"/>
   </g>
   <g id="patch_77">
    <path d="M 647.86342 332.12 
L 655.195077 332.12 
L 655.195077 281.408659 
L 647.86342 281.408659 
z
" clip-path="url(#p80d2bc3be9)" style="fill: #da0c81; fill-opacity: 0.75; stroke: #ffffff; stroke-width: 0.634091; stroke-linejoin: miter"/>
   </g>
   <g id="patch_78">
    <path d="M 655.195077 332.12 
L 662.526734 332.12 
L 662.526734 296.368504 
L 655.195077 296.368504 
z
" clip-path="url(#p80d2bc3be9)" style="fill: #da0c81; fill-opacity: 0.75; stroke: #ffffff; stroke-width: 0.634091; stroke-linejoin: miter"/>
   </g>
   <g id="patch_79">
    <path d="M 662.526734 332.12 
L 669.858391 332.12 
L 669.858391 307.524999 
L 662.526734 307.524999 
z
" clip-path="url(#p80d2bc3be9)" style="fill: #da0c81; fill-opacity: 0.75; stroke: #ffffff; stroke-width: 0.634091; stroke-linejoin: miter"/>
   </g>
   <g id="patch_80">
    <path d="M 669.858391 332.12 
L 677.190048 332.12 
L 677.190048 320.202835 
L 669.858391 320.202835 
z
" clip-path="url(#p80d2bc3be9)" style="fill: #da0c81; fill-opacity: 0.75; stroke: #ffffff; stroke-width: 0.634091; stroke-linejoin: miter"/>
   </g>
   <g id="patch_81">
    <path d="M 677.190048 332.12 
L 684.521705 332.12 
L 684.521705 326.288196 
L 677.190048 326.288196 
z
" clip-path="url(#p80d2bc3be9)" style="fill: #da0c81; fill-opacity: 0.75; stroke: #ffffff; stroke-width: 0.634091; stroke-linejoin: miter"/>
   </g>
   <g id="patch_82">
    <path d="M 684.521705 332.12 
L 691.853362 332.12 
L 691.853362 328.063093 
L 684.521705 328.063093 
z
" clip-path="url(#p80d2bc3be9)" style="fill: #da0c81; fill-opacity: 0.75; stroke: #ffffff; stroke-width: 0.634091; stroke-linejoin: miter"/>
   </g>
   <g id="patch_83">
    <path d="M 691.853362 332.12 
L 699.185019 332.12 
L 699.185019 328.570206 
L 691.853362 328.570206 
z
" clip-path="url(#p80d2bc3be9)" style="fill: #da0c81; fill-opacity: 0.75; stroke: #ffffff; stroke-width: 0.634091; stroke-linejoin: miter"/>
   </g>
   <g id="patch_84">
    <path d="M 699.185019 332.12 
L 706.516676 332.12 
L 706.516676 331.35933 
L 699.185019 331.35933 
z
" clip-path="url(#p80d2bc3be9)" style="fill: #da0c81; fill-opacity: 0.75; stroke: #ffffff; stroke-width: 0.634091; stroke-linejoin: miter"/>
   </g>
   <g id="patch_85">
    <path d="M 706.516676 332.12 
L 713.848332 332.12 
L 713.848332 331.612887 
L 706.516676 331.612887 
z
" clip-path="url(#p80d2bc3be9)" style="fill: #da0c81; fill-opacity: 0.75; stroke: #ffffff; stroke-width: 0.634091; stroke-linejoin: miter"/>
   </g>
   <g id="patch_86">
    <path d="M 713.848332 332.12 
L 721.179989 332.12 
L 721.179989 331.866443 
L 713.848332 331.866443 
z
" clip-path="url(#p80d2bc3be9)" style="fill: #da0c81; fill-opacity: 0.75; stroke: #ffffff; stroke-width: 0.634091; stroke-linejoin: miter"/>
   </g>
   <g id="patch_87">
    <path d="M 721.179989 332.12 
L 728.511646 332.12 
L 728.511646 331.866443 
L 721.179989 331.866443 
z
" clip-path="url(#p80d2bc3be9)" style="fill: #da0c81; fill-opacity: 0.75; stroke: #ffffff; stroke-width: 0.634091; stroke-linejoin: miter"/>
   </g>
   <g id="line2d_29">
    <path d="M 761.409006 332.12 
L 761.409006 82.392 
" clip-path="url(#p80d2bc3be9)" style="fill: none; stroke: #bc7af9; stroke-width: 3; stroke-linecap: round"/>
   </g>
   <g id="patch_88">
    <path d="M 418.937187 332.12 
L 418.937187 82.392 
" style="fill: none; stroke: #262626; stroke-width: 0.8; stroke-linejoin: miter; stroke-linecap: square"/>
   </g>
   <g id="patch_89">
    <path d="M 777.717187 332.12 
L 777.717187 82.392 
" style="fill: none; stroke: #262626; stroke-width: 0.8; stroke-linejoin: miter; stroke-linecap: square"/>
   </g>
   <g id="patch_90">
    <path d="M 418.937188 332.12 
L 777.717187 332.12 
" style="fill: none; stroke: #262626; stroke-width: 0.8; stroke-linejoin: miter; stroke-linecap: square"/>
   </g>
   <g id="patch_91">
    <path d="M 418.937188 82.392 
L 777.717187 82.392 
" style="fill: none; stroke: #262626; stroke-width: 0.8; stroke-linejoin: miter; stroke-linecap: square"/>
   </g>
   <g id="text_23">
    <!-- Normal Distribution under the Null Hypothesis -->
    <g style="fill: #262626" transform="translate(456.718281 67.392) scale(0.14 -0.14)">
     <defs>
      <path id="ArialMT-4e" d="M 488 0 
L 488 4581 
L 1109 4581 
L 3516 984 
L 3516 4581 
L 4097 4581 
L 4097 0 
L 3475 0 
L 1069 3600 
L 1069 0 
L 488 0 
z
" transform="scale(0.015625)"/>
      <path id="ArialMT-68" d="M 422 0 
L 422 4581 
L 984 4581 
L 984 2938 
Q 1378 3394 1978 3394 
Q 2347 3394 2619 3248 
Q 2891 3103 3008 2847 
Q 3125 2591 3125 2103 
L 3125 0 
L 2563 0 
L 2563 2103 
Q 2563 2525 2380 2717 
Q 2197 2909 1863 2909 
Q 1613 2909 1392 2779 
Q 1172 2650 1078 2428 
Q 984 2206 984 1816 
L 984 0 
L 422 0 
z
" transform="scale(0.015625)"/>
      <path id="ArialMT-48" d="M 513 0 
L 513 4581 
L 1119 4581 
L 1119 2700 
L 3500 2700 
L 3500 4581 
L 4106 4581 
L 4106 0 
L 3500 0 
L 3500 2159 
L 1119 2159 
L 1119 0 
L 513 0 
z
" transform="scale(0.015625)"/>
     </defs>
     <use xlink:href="#ArialMT-4e"/>
     <use xlink:href="#ArialMT-6f" x="72.216797"/>
     <use xlink:href="#ArialMT-72" x="127.832031"/>
     <use xlink:href="#ArialMT-6d" x="161.132812"/>
     <use xlink:href="#ArialMT-61" x="244.433594"/>
     <use xlink:href="#ArialMT-6c" x="300.048828"/>
     <use xlink:href="#ArialMT-20" x="322.265625"/>
     <use xlink:href="#ArialMT-44" x="350.048828"/>
     <use xlink:href="#ArialMT-69" x="422.265625"/>
     <use xlink:href="#ArialMT-73" x="444.482422"/>
     <use xlink:href="#ArialMT-74" x="494.482422"/>
     <use xlink:href="#ArialMT-72" x="522.265625"/>
     <use xlink:href="#ArialMT-69" x="555.566406"/>
     <use xlink:href="#ArialMT-62" x="577.783203"/>
     <use xlink:href="#ArialMT-75" x="633.398438"/>
     <use xlink:href="#ArialMT-74" x="689.013672"/>
     <use xlink:href="#ArialMT-69" x="716.796875"/>
     <use xlink:href="#ArialMT-6f" x="739.013672"/>
     <use xlink:href="#ArialMT-6e" x="794.628906"/>
     <use xlink:href="#ArialMT-20" x="850.244141"/>
     <use xlink:href="#ArialMT-75" x="878.027344"/>
     <use xlink:href="#ArialMT-6e" x="933.642578"/>
     <use xlink:href="#ArialMT-64" x="989.257812"/>
     <use xlink:href="#ArialMT-65" x="1044.873047"/>
     <use xlink:href="#ArialMT-72" x="1100.488281"/>
     <use xlink:href="#ArialMT-20" x="1133.789062"/>
     <use xlink:href="#ArialMT-74" x="1161.572266"/>
     <use xlink:href="#ArialMT-68" x="1189.355469"/>
     <use xlink:href="#ArialMT-65" x="1244.970703"/>
     <use xlink:href="#ArialMT-20" x="1300.585938"/>
     <use xlink:href="#ArialMT-4e" x="1328.369141"/>
     <use xlink:href="#ArialMT-75" x="1400.585938"/>
     <use xlink:href="#ArialMT-6c" x="1456.201172"/>
     <use xlink:href="#ArialMT-6c" x="1478.417969"/>
     <use xlink:href="#ArialMT-20" x="1500.634766"/>
     <use xlink:href="#ArialMT-48" x="1528.417969"/>
     <use xlink:href="#ArialMT-79" x="1600.634766"/>
     <use xlink:href="#ArialMT-70" x="1650.634766"/>
     <use xlink:href="#ArialMT-6f" x="1706.25"/>
     <use xlink:href="#ArialMT-74" x="1761.865234"/>
     <use xlink:href="#ArialMT-68" x="1789.648438"/>
     <use xlink:href="#ArialMT-65" x="1845.263672"/>
     <use xlink:href="#ArialMT-73" x="1900.878906"/>
     <use xlink:href="#ArialMT-69" x="1950.878906"/>
     <use xlink:href="#ArialMT-73" x="1973.095703"/>
    </g>
   </g>
  </g>
  <g id="text_24">
   <!-- Click-Trough-Rate (CTR) Difference Distribution -->
   <g style="fill: #262626" transform="translate(188.520937 20.303437) scale(0.18 -0.18)">
    <defs>
     <path id="Arial-BoldMT-43" d="M 3397 1684 
L 4294 1400 
Q 4088 650 3608 286 
Q 3128 -78 2391 -78 
Q 1478 -78 890 545 
Q 303 1169 303 2250 
Q 303 3394 893 4026 
Q 1484 4659 2447 4659 
Q 3288 4659 3813 4163 
Q 4125 3869 4281 3319 
L 3366 3100 
Q 3284 3456 3026 3662 
Q 2769 3869 2400 3869 
Q 1891 3869 1573 3503 
Q 1256 3138 1256 2319 
Q 1256 1450 1568 1081 
Q 1881 713 2381 713 
Q 2750 713 3015 947 
Q 3281 1181 3397 1684 
z
" transform="scale(0.015625)"/>
     <path id="Arial-BoldMT-6c" d="M 459 0 
L 459 4581 
L 1338 4581 
L 1338 0 
L 459 0 
z
" transform="scale(0.015625)"/>
     <path id="Arial-BoldMT-69" d="M 459 3769 
L 459 4581 
L 1338 4581 
L 1338 3769 
L 459 3769 
z
M 459 0 
L 459 3319 
L 1338 3319 
L 1338 0 
L 459 0 
z
" transform="scale(0.015625)"/>
     <path id="Arial-BoldMT-63" d="M 3353 2338 
L 2488 2181 
Q 2444 2441 2289 2572 
Q 2134 2703 1888 2703 
Q 1559 2703 1364 2476 
Q 1169 2250 1169 1719 
Q 1169 1128 1367 884 
Q 1566 641 1900 641 
Q 2150 641 2309 783 
Q 2469 925 2534 1272 
L 3397 1125 
Q 3263 531 2881 228 
Q 2500 -75 1859 -75 
Q 1131 -75 698 384 
Q 266 844 266 1656 
Q 266 2478 700 2936 
Q 1134 3394 1875 3394 
Q 2481 3394 2839 3133 
Q 3197 2872 3353 2338 
z
" transform="scale(0.015625)"/>
     <path id="Arial-BoldMT-6b" d="M 428 0 
L 428 4581 
L 1306 4581 
L 1306 2150 
L 2334 3319 
L 3416 3319 
L 2281 2106 
L 3497 0 
L 2550 0 
L 1716 1491 
L 1306 1063 
L 1306 0 
L 428 0 
z
" transform="scale(0.015625)"/>
     <path id="Arial-BoldMT-2d" d="M 359 1222 
L 359 2100 
L 2084 2100 
L 2084 1222 
L 359 1222 
z
" transform="scale(0.015625)"/>
     <path id="Arial-BoldMT-54" d="M 1497 0 
L 1497 3806 
L 138 3806 
L 138 4581 
L 3778 4581 
L 3778 3806 
L 2422 3806 
L 2422 0 
L 1497 0 
z
" transform="scale(0.015625)"/>
     <path id="Arial-BoldMT-72" d="M 1300 0 
L 422 0 
L 422 3319 
L 1238 3319 
L 1238 2847 
Q 1447 3181 1614 3287 
Q 1781 3394 1994 3394 
Q 2294 3394 2572 3228 
L 2300 2463 
Q 2078 2606 1888 2606 
Q 1703 2606 1575 2504 
Q 1447 2403 1373 2137 
Q 1300 1872 1300 1025 
L 1300 0 
z
" transform="scale(0.015625)"/>
     <path id="Arial-BoldMT-6f" d="M 256 1706 
Q 256 2144 472 2553 
Q 688 2963 1083 3178 
Q 1478 3394 1966 3394 
Q 2719 3394 3200 2905 
Q 3681 2416 3681 1669 
Q 3681 916 3195 420 
Q 2709 -75 1972 -75 
Q 1516 -75 1102 131 
Q 688 338 472 736 
Q 256 1134 256 1706 
z
M 1156 1659 
Q 1156 1166 1390 903 
Q 1625 641 1969 641 
Q 2313 641 2545 903 
Q 2778 1166 2778 1666 
Q 2778 2153 2545 2415 
Q 2313 2678 1969 2678 
Q 1625 2678 1390 2415 
Q 1156 2153 1156 1659 
z
" transform="scale(0.015625)"/>
     <path id="Arial-BoldMT-75" d="M 2644 0 
L 2644 497 
Q 2463 231 2167 78 
Q 1872 -75 1544 -75 
Q 1209 -75 943 72 
Q 678 219 559 484 
Q 441 750 441 1219 
L 441 3319 
L 1319 3319 
L 1319 1794 
Q 1319 1094 1367 936 
Q 1416 778 1544 686 
Q 1672 594 1869 594 
Q 2094 594 2272 717 
Q 2450 841 2515 1023 
Q 2581 1206 2581 1919 
L 2581 3319 
L 3459 3319 
L 3459 0 
L 2644 0 
z
" transform="scale(0.015625)"/>
     <path id="Arial-BoldMT-67" d="M 378 -219 
L 1381 -341 
Q 1406 -516 1497 -581 
Q 1622 -675 1891 -675 
Q 2234 -675 2406 -572 
Q 2522 -503 2581 -350 
Q 2622 -241 2622 53 
L 2622 538 
Q 2228 0 1628 0 
Q 959 0 569 566 
Q 263 1013 263 1678 
Q 263 2513 664 2953 
Q 1066 3394 1663 3394 
Q 2278 3394 2678 2853 
L 2678 3319 
L 3500 3319 
L 3500 341 
Q 3500 -247 3403 -537 
Q 3306 -828 3131 -993 
Q 2956 -1159 2664 -1253 
Q 2372 -1347 1925 -1347 
Q 1081 -1347 728 -1058 
Q 375 -769 375 -325 
Q 375 -281 378 -219 
z
M 1163 1728 
Q 1163 1200 1367 954 
Q 1572 709 1872 709 
Q 2194 709 2416 961 
Q 2638 1213 2638 1706 
Q 2638 2222 2425 2472 
Q 2213 2722 1888 2722 
Q 1572 2722 1367 2476 
Q 1163 2231 1163 1728 
z
" transform="scale(0.015625)"/>
     <path id="Arial-BoldMT-68" d="M 1334 4581 
L 1334 2897 
Q 1759 3394 2350 3394 
Q 2653 3394 2897 3281 
Q 3141 3169 3264 2994 
Q 3388 2819 3433 2606 
Q 3478 2394 3478 1947 
L 3478 0 
L 2600 0 
L 2600 1753 
Q 2600 2275 2550 2415 
Q 2500 2556 2373 2639 
Q 2247 2722 2056 2722 
Q 1838 2722 1666 2615 
Q 1494 2509 1414 2295 
Q 1334 2081 1334 1663 
L 1334 0 
L 456 0 
L 456 4581 
L 1334 4581 
z
" transform="scale(0.015625)"/>
     <path id="Arial-BoldMT-52" d="M 469 0 
L 469 4581 
L 2416 4581 
Q 3150 4581 3483 4457 
Q 3816 4334 4016 4018 
Q 4216 3703 4216 3297 
Q 4216 2781 3912 2445 
Q 3609 2109 3006 2022 
Q 3306 1847 3501 1637 
Q 3697 1428 4028 894 
L 4588 0 
L 3481 0 
L 2813 997 
Q 2456 1531 2325 1670 
Q 2194 1809 2047 1861 
Q 1900 1913 1581 1913 
L 1394 1913 
L 1394 0 
L 469 0 
z
M 1394 2644 
L 2078 2644 
Q 2744 2644 2909 2700 
Q 3075 2756 3169 2893 
Q 3263 3031 3263 3238 
Q 3263 3469 3139 3611 
Q 3016 3753 2791 3791 
Q 2678 3806 2116 3806 
L 1394 3806 
L 1394 2644 
z
" transform="scale(0.015625)"/>
     <path id="Arial-BoldMT-61" d="M 1116 2306 
L 319 2450 
Q 453 2931 781 3162 
Q 1109 3394 1756 3394 
Q 2344 3394 2631 3255 
Q 2919 3116 3036 2902 
Q 3153 2688 3153 2116 
L 3144 1091 
Q 3144 653 3186 445 
Q 3228 238 3344 0 
L 2475 0 
Q 2441 88 2391 259 
Q 2369 338 2359 363 
Q 2134 144 1878 34 
Q 1622 -75 1331 -75 
Q 819 -75 523 203 
Q 228 481 228 906 
Q 228 1188 362 1408 
Q 497 1628 739 1745 
Q 981 1863 1438 1950 
Q 2053 2066 2291 2166 
L 2291 2253 
Q 2291 2506 2166 2614 
Q 2041 2722 1694 2722 
Q 1459 2722 1328 2630 
Q 1197 2538 1116 2306 
z
M 2291 1594 
Q 2122 1538 1756 1459 
Q 1391 1381 1278 1306 
Q 1106 1184 1106 997 
Q 1106 813 1243 678 
Q 1381 544 1594 544 
Q 1831 544 2047 700 
Q 2206 819 2256 991 
Q 2291 1103 2291 1419 
L 2291 1594 
z
" transform="scale(0.015625)"/>
     <path id="Arial-BoldMT-74" d="M 1981 3319 
L 1981 2619 
L 1381 2619 
L 1381 1281 
Q 1381 875 1398 808 
Q 1416 741 1477 697 
Q 1538 653 1625 653 
Q 1747 653 1978 738 
L 2053 56 
Q 1747 -75 1359 -75 
Q 1122 -75 931 4 
Q 741 84 652 211 
Q 563 338 528 553 
Q 500 706 500 1172 
L 500 2619 
L 97 2619 
L 97 3319 
L 500 3319 
L 500 3978 
L 1381 4491 
L 1381 3319 
L 1981 3319 
z
" transform="scale(0.015625)"/>
     <path id="Arial-BoldMT-65" d="M 2381 1056 
L 3256 909 
Q 3088 428 2723 176 
Q 2359 -75 1813 -75 
Q 947 -75 531 491 
Q 203 944 203 1634 
Q 203 2459 634 2926 
Q 1066 3394 1725 3394 
Q 2466 3394 2894 2905 
Q 3322 2416 3303 1406 
L 1103 1406 
Q 1113 1016 1316 798 
Q 1519 581 1822 581 
Q 2028 581 2168 693 
Q 2309 806 2381 1056 
z
M 2431 1944 
Q 2422 2325 2234 2523 
Q 2047 2722 1778 2722 
Q 1491 2722 1303 2513 
Q 1116 2303 1119 1944 
L 2431 1944 
z
" transform="scale(0.015625)"/>
     <path id="Arial-BoldMT-20" transform="scale(0.015625)"/>
     <path id="Arial-BoldMT-28" d="M 1916 -1347 
L 1313 -1347 
Q 834 -625 584 153 
Q 334 931 334 1659 
Q 334 2563 644 3369 
Q 913 4069 1325 4659 
L 1925 4659 
Q 1497 3713 1336 3048 
Q 1175 2384 1175 1641 
Q 1175 1128 1270 590 
Q 1366 53 1531 -431 
Q 1641 -750 1916 -1347 
z
" transform="scale(0.015625)"/>
     <path id="Arial-BoldMT-29" d="M 216 -1347 
Q 475 -791 581 -494 
Q 688 -197 778 190 
Q 869 578 912 926 
Q 956 1275 956 1641 
Q 956 2384 797 3048 
Q 638 3713 209 4659 
L 806 4659 
Q 1278 3988 1539 3234 
Q 1800 2481 1800 1706 
Q 1800 1053 1594 306 
Q 1359 -531 822 -1347 
L 216 -1347 
z
" transform="scale(0.015625)"/>
     <path id="Arial-BoldMT-44" d="M 463 4581 
L 2153 4581 
Q 2725 4581 3025 4494 
Q 3428 4375 3715 4072 
Q 4003 3769 4153 3330 
Q 4303 2891 4303 2247 
Q 4303 1681 4163 1272 
Q 3991 772 3672 463 
Q 3431 228 3022 97 
Q 2716 0 2203 0 
L 463 0 
L 463 4581 
z
M 1388 3806 
L 1388 772 
L 2078 772 
Q 2466 772 2638 816 
Q 2863 872 3011 1006 
Q 3159 1141 3253 1448 
Q 3347 1756 3347 2288 
Q 3347 2819 3253 3103 
Q 3159 3388 2990 3547 
Q 2822 3706 2563 3763 
Q 2369 3806 1803 3806 
L 1388 3806 
z
" transform="scale(0.015625)"/>
     <path id="Arial-BoldMT-66" d="M 75 3319 
L 563 3319 
L 563 3569 
Q 563 3988 652 4194 
Q 741 4400 980 4529 
Q 1219 4659 1584 4659 
Q 1959 4659 2319 4547 
L 2200 3934 
Q 1991 3984 1797 3984 
Q 1606 3984 1523 3895 
Q 1441 3806 1441 3553 
L 1441 3319 
L 2097 3319 
L 2097 2628 
L 1441 2628 
L 1441 0 
L 563 0 
L 563 2628 
L 75 2628 
L 75 3319 
z
" transform="scale(0.015625)"/>
     <path id="Arial-BoldMT-6e" d="M 3478 0 
L 2600 0 
L 2600 1694 
Q 2600 2231 2544 2389 
Q 2488 2547 2361 2634 
Q 2234 2722 2056 2722 
Q 1828 2722 1647 2597 
Q 1466 2472 1398 2265 
Q 1331 2059 1331 1503 
L 1331 0 
L 453 0 
L 453 3319 
L 1269 3319 
L 1269 2831 
Q 1703 3394 2363 3394 
Q 2653 3394 2893 3289 
Q 3134 3184 3257 3021 
Q 3381 2859 3429 2653 
Q 3478 2447 3478 2063 
L 3478 0 
z
" transform="scale(0.015625)"/>
     <path id="Arial-BoldMT-73" d="M 150 947 
L 1031 1081 
Q 1088 825 1259 692 
Q 1431 559 1741 559 
Q 2081 559 2253 684 
Q 2369 772 2369 919 
Q 2369 1019 2306 1084 
Q 2241 1147 2013 1200 
Q 950 1434 666 1628 
Q 272 1897 272 2375 
Q 272 2806 612 3100 
Q 953 3394 1669 3394 
Q 2350 3394 2681 3172 
Q 3013 2950 3138 2516 
L 2309 2363 
Q 2256 2556 2107 2659 
Q 1959 2763 1684 2763 
Q 1338 2763 1188 2666 
Q 1088 2597 1088 2488 
Q 1088 2394 1175 2328 
Q 1294 2241 1995 2081 
Q 2697 1922 2975 1691 
Q 3250 1456 3250 1038 
Q 3250 581 2869 253 
Q 2488 -75 1741 -75 
Q 1063 -75 667 200 
Q 272 475 150 947 
z
" transform="scale(0.015625)"/>
     <path id="Arial-BoldMT-62" d="M 422 0 
L 422 4581 
L 1300 4581 
L 1300 2931 
Q 1706 3394 2263 3394 
Q 2869 3394 3266 2955 
Q 3663 2516 3663 1694 
Q 3663 844 3258 384 
Q 2853 -75 2275 -75 
Q 1991 -75 1714 67 
Q 1438 209 1238 488 
L 1238 0 
L 422 0 
z
M 1294 1731 
Q 1294 1216 1456 969 
Q 1684 619 2063 619 
Q 2353 619 2558 867 
Q 2763 1116 2763 1650 
Q 2763 2219 2556 2470 
Q 2350 2722 2028 2722 
Q 1713 2722 1503 2476 
Q 1294 2231 1294 1731 
z
" transform="scale(0.015625)"/>
    </defs>
    <use xlink:href="#Arial-BoldMT-43"/>
    <use xlink:href="#Arial-BoldMT-6c" x="72.216797"/>
    <use xlink:href="#Arial-BoldMT-69" x="100"/>
    <use xlink:href="#Arial-BoldMT-63" x="127.783203"/>
    <use xlink:href="#Arial-BoldMT-6b" x="183.398438"/>
    <use xlink:href="#Arial-BoldMT-2d" x="239.013672"/>
    <use xlink:href="#Arial-BoldMT-54" x="272.314453"/>
    <use xlink:href="#Arial-BoldMT-72" x="327.898438"/>
    <use xlink:href="#Arial-BoldMT-6f" x="366.814453"/>
    <use xlink:href="#Arial-BoldMT-75" x="427.898438"/>
    <use xlink:href="#Arial-BoldMT-67" x="488.982422"/>
    <use xlink:href="#Arial-BoldMT-68" x="550.066406"/>
    <use xlink:href="#Arial-BoldMT-2d" x="611.150391"/>
    <use xlink:href="#Arial-BoldMT-52" x="644.451172"/>
    <use xlink:href="#Arial-BoldMT-61" x="716.667969"/>
    <use xlink:href="#Arial-BoldMT-74" x="772.283203"/>
    <use xlink:href="#Arial-BoldMT-65" x="805.583984"/>
    <use xlink:href="#Arial-BoldMT-20" x="861.199219"/>
    <use xlink:href="#Arial-BoldMT-28" x="888.982422"/>
    <use xlink:href="#Arial-BoldMT-43" x="922.283203"/>
    <use xlink:href="#Arial-BoldMT-54" x="994.5"/>
    <use xlink:href="#Arial-BoldMT-52" x="1055.583984"/>
    <use xlink:href="#Arial-BoldMT-29" x="1127.800781"/>
    <use xlink:href="#Arial-BoldMT-20" x="1161.101562"/>
    <use xlink:href="#Arial-BoldMT-44" x="1188.884766"/>
    <use xlink:href="#Arial-BoldMT-69" x="1261.101562"/>
    <use xlink:href="#Arial-BoldMT-66" x="1288.884766"/>
    <use xlink:href="#Arial-BoldMT-66" x="1322.185547"/>
    <use xlink:href="#Arial-BoldMT-65" x="1355.486328"/>
    <use xlink:href="#Arial-BoldMT-72" x="1411.101562"/>
    <use xlink:href="#Arial-BoldMT-65" x="1450.017578"/>
    <use xlink:href="#Arial-BoldMT-6e" x="1505.632812"/>
    <use xlink:href="#Arial-BoldMT-63" x="1566.716797"/>
    <use xlink:href="#Arial-BoldMT-65" x="1622.332031"/>
    <use xlink:href="#Arial-BoldMT-20" x="1677.947266"/>
    <use xlink:href="#Arial-BoldMT-44" x="1705.730469"/>
    <use xlink:href="#Arial-BoldMT-69" x="1777.947266"/>
    <use xlink:href="#Arial-BoldMT-73" x="1805.730469"/>
    <use xlink:href="#Arial-BoldMT-74" x="1861.345703"/>
    <use xlink:href="#Arial-BoldMT-72" x="1894.646484"/>
    <use xlink:href="#Arial-BoldMT-69" x="1933.5625"/>
    <use xlink:href="#Arial-BoldMT-62" x="1961.345703"/>
    <use xlink:href="#Arial-BoldMT-75" x="2022.429688"/>
    <use xlink:href="#Arial-BoldMT-74" x="2083.513672"/>
    <use xlink:href="#Arial-BoldMT-69" x="2116.814453"/>
    <use xlink:href="#Arial-BoldMT-6f" x="2144.597656"/>
    <use xlink:href="#Arial-BoldMT-6e" x="2205.681641"/>
   </g>
   <!-- Between Control and Test Group -->
   <g style="fill: #262626" transform="translate(252.683906 39.816) scale(0.18 -0.18)">
    <defs>
     <path id="Arial-BoldMT-42" d="M 469 4581 
L 2300 4581 
Q 2844 4581 3111 4536 
Q 3378 4491 3589 4347 
Q 3800 4203 3940 3964 
Q 4081 3725 4081 3428 
Q 4081 3106 3907 2837 
Q 3734 2569 3438 2434 
Q 3856 2313 4081 2019 
Q 4306 1725 4306 1328 
Q 4306 1016 4161 720 
Q 4016 425 3764 248 
Q 3513 72 3144 31 
Q 2913 6 2028 0 
L 469 0 
L 469 4581 
z
M 1394 3819 
L 1394 2759 
L 2000 2759 
Q 2541 2759 2672 2775 
Q 2909 2803 3045 2939 
Q 3181 3075 3181 3297 
Q 3181 3509 3064 3642 
Q 2947 3775 2716 3803 
Q 2578 3819 1925 3819 
L 1394 3819 
z
M 1394 1997 
L 1394 772 
L 2250 772 
Q 2750 772 2884 800 
Q 3091 838 3220 983 
Q 3350 1128 3350 1372 
Q 3350 1578 3250 1722 
Q 3150 1866 2961 1931 
Q 2772 1997 2141 1997 
L 1394 1997 
z
" transform="scale(0.015625)"/>
     <path id="Arial-BoldMT-77" d="M 1078 0 
L 28 3319 
L 881 3319 
L 1503 1144 
L 2075 3319 
L 2922 3319 
L 3475 1144 
L 4109 3319 
L 4975 3319 
L 3909 0 
L 3066 0 
L 2494 2134 
L 1931 0 
L 1078 0 
z
" transform="scale(0.015625)"/>
     <path id="Arial-BoldMT-64" d="M 3503 0 
L 2688 0 
L 2688 488 
Q 2484 203 2207 64 
Q 1931 -75 1650 -75 
Q 1078 -75 670 386 
Q 263 847 263 1672 
Q 263 2516 659 2955 
Q 1056 3394 1663 3394 
Q 2219 3394 2625 2931 
L 2625 4581 
L 3503 4581 
L 3503 0 
z
M 1159 1731 
Q 1159 1200 1306 963 
Q 1519 619 1900 619 
Q 2203 619 2415 876 
Q 2628 1134 2628 1647 
Q 2628 2219 2422 2470 
Q 2216 2722 1894 2722 
Q 1581 2722 1370 2473 
Q 1159 2225 1159 1731 
z
" transform="scale(0.015625)"/>
     <path id="Arial-BoldMT-47" d="M 2597 1684 
L 2597 2456 
L 4591 2456 
L 4591 631 
Q 4300 350 3748 136 
Q 3197 -78 2631 -78 
Q 1913 -78 1378 223 
Q 844 525 575 1086 
Q 306 1647 306 2306 
Q 306 3022 606 3578 
Q 906 4134 1484 4431 
Q 1925 4659 2581 4659 
Q 3434 4659 3914 4301 
Q 4394 3944 4531 3313 
L 3613 3141 
Q 3516 3478 3248 3673 
Q 2981 3869 2581 3869 
Q 1975 3869 1617 3484 
Q 1259 3100 1259 2344 
Q 1259 1528 1621 1120 
Q 1984 713 2572 713 
Q 2863 713 3155 827 
Q 3447 941 3656 1103 
L 3656 1684 
L 2597 1684 
z
" transform="scale(0.015625)"/>
     <path id="Arial-BoldMT-70" d="M 434 3319 
L 1253 3319 
L 1253 2831 
Q 1413 3081 1684 3237 
Q 1956 3394 2288 3394 
Q 2866 3394 3269 2941 
Q 3672 2488 3672 1678 
Q 3672 847 3265 386 
Q 2859 -75 2281 -75 
Q 2006 -75 1782 34 
Q 1559 144 1313 409 
L 1313 -1263 
L 434 -1263 
L 434 3319 
z
M 1303 1716 
Q 1303 1156 1525 889 
Q 1747 622 2066 622 
Q 2372 622 2575 867 
Q 2778 1113 2778 1672 
Q 2778 2194 2568 2447 
Q 2359 2700 2050 2700 
Q 1728 2700 1515 2451 
Q 1303 2203 1303 1716 
z
" transform="scale(0.015625)"/>
    </defs>
    <use xlink:href="#Arial-BoldMT-42"/>
    <use xlink:href="#Arial-BoldMT-65" x="72.216797"/>
    <use xlink:href="#Arial-BoldMT-74" x="127.832031"/>
    <use xlink:href="#Arial-BoldMT-77" x="161.132812"/>
    <use xlink:href="#Arial-BoldMT-65" x="238.916016"/>
    <use xlink:href="#Arial-BoldMT-65" x="294.53125"/>
    <use xlink:href="#Arial-BoldMT-6e" x="350.146484"/>
    <use xlink:href="#Arial-BoldMT-20" x="411.230469"/>
    <use xlink:href="#Arial-BoldMT-43" x="439.013672"/>
    <use xlink:href="#Arial-BoldMT-6f" x="511.230469"/>
    <use xlink:href="#Arial-BoldMT-6e" x="572.314453"/>
    <use xlink:href="#Arial-BoldMT-74" x="633.398438"/>
    <use xlink:href="#Arial-BoldMT-72" x="666.699219"/>
    <use xlink:href="#Arial-BoldMT-6f" x="705.615234"/>
    <use xlink:href="#Arial-BoldMT-6c" x="766.699219"/>
    <use xlink:href="#Arial-BoldMT-20" x="794.482422"/>
    <use xlink:href="#Arial-BoldMT-61" x="822.265625"/>
    <use xlink:href="#Arial-BoldMT-6e" x="877.880859"/>
    <use xlink:href="#Arial-BoldMT-64" x="938.964844"/>
    <use xlink:href="#Arial-BoldMT-20" x="1000.048828"/>
    <use xlink:href="#Arial-BoldMT-54" x="1027.832031"/>
    <use xlink:href="#Arial-BoldMT-65" x="1081.541016"/>
    <use xlink:href="#Arial-BoldMT-73" x="1137.15625"/>
    <use xlink:href="#Arial-BoldMT-74" x="1192.771484"/>
    <use xlink:href="#Arial-BoldMT-20" x="1226.072266"/>
    <use xlink:href="#Arial-BoldMT-47" x="1253.855469"/>
    <use xlink:href="#Arial-BoldMT-72" x="1331.638672"/>
    <use xlink:href="#Arial-BoldMT-6f" x="1370.554688"/>
    <use xlink:href="#Arial-BoldMT-75" x="1431.638672"/>
    <use xlink:href="#Arial-BoldMT-70" x="1492.722656"/>
   </g>
  </g>
 </g>
 <defs>
  <clipPath id="pe201b43967">
   <rect x="45.857188" y="82.392" width="358.78" height="249.728"/>
  </clipPath>
  <clipPath id="p80d2bc3be9">
   <rect x="418.937187" y="82.392" width="358.78" height="249.728"/>
  </clipPath>
 </defs>
</svg>
